<?xml version="1.0" encoding="utf-8"?>
<!-- Generator: Adobe Illustrator 24.1.3, SVG Export Plug-In . SVG Version: 6.00 Build 0)  -->
<svg version="1.1" id="Layer_1" xmlns="http://www.w3.org/2000/svg" xmlns:xlink="http://www.w3.org/1999/xlink" x="0px" y="0px"
	 viewBox="0 0 1920 1080" enable-background="new 0 0 1920 1080" xml:space="preserve">
<g>
	<path fill="#0B0C15" d="M855.6,872.2c0.6,5.8-4,3-5.9,3c-30.5,0.2-61,0.2-91.5,0.2c-51,0-102-0.1-153,0.2c-5.9,0-7.3-1.3-7.3-7.2
		c0-48-0.3-96.1-0.6-144.1c0-8.4-1.2-16.7-2.9-25c-1.4-6.6-0.9-13,1.2-19.4c2.4-2.4,4.8-4.1,7.3-0.1c0.8,2.3,0.5,4.7,0,7
		c-0.8,3.9-1.4,8-0.5,11.7c5.4,22.1,9.7,44.6,23.9,63.5c2.5,3.4,6.1,4.8,9.8,6.3c20.6,8.3,38.3,20.5,51.9,38.3
		c2.9,3.8,4.8,8.1,7.2,12.2c1.1,1.9,2.1,4.5,0.9,6c-5.6,7.2-4.6,15.4-3.6,23.1c-0.8,0.6,0,0.4,0,0.3c-2.8-11.3,0.8-20.4,8.8-28.4
		c3.5-3.5,4.2-8.3,4.2-13.2c0-7.9,0-15.8,0-23.6c0-2.9-0.3-5.8,1.6-8.4c5.1-1.6,7,2,7.4,5.6c2.2,17.4,15.8,26.8,26.3,38.5
		c7.5,8.4,17.7,13.8,24,23.6c3.9,6.1,11.9,7.3,18.8,8.6c17,3.2,34.1,5,51.2,7.3C842.5,859.4,852.5,861.8,855.6,872.2z"/>
	<path fill="#1A0B23" d="M503.9,440.7c1.9,8.3,10.2,14.5,8.2,24.2c-0.2,1.1,0.8,3,2.3,1.2c2.6-3.1,3.1,0.3,3.2,1.2
		c0.4,6.5,5.5,11.7,4,19c-1.2,5.7-0.2,11.9-0.2,18.2c-3-4-3.1-8.6-3.2-13.2c-0.2-5.4-2.4-9.1-6.5-13.2c-4.6-4.7-11.3-6.9-14.6-12.9
		c-2.6-4.8-7.2-9.8,2.2-13.8c-9.6,2.5-17.7-0.3-26-1.5c-10.8-1.6-14,1.8-11.9,12.6c1.6,8.2,5.4,15.8,6.3,25.7
		c-6.9-7.8-10.2-16.9-18.9-21.7c-0.7,3.3,5.1,4.9,1.8,8.3c-7.6-7.9-16.5-14.3-24.1-22.7c-22.7-25.2-26.1-54.9-23.4-86.7
		c0.9-10.1,5.1-19.8,3.8-30.2c-0.5-3.5,1.6-2.7,3.2-1.7c3.9,2.5,5.5,6.4,4.8,10.8c-1.1,7.1,2.8,9.3,8.8,10.1
		c2.9,0.4,5.8,0.5,8.6,0.2c9.7-0.9,17.1,2.6,22,11.1c3.5-2.4,6.4-5.3,8.2-9.1c7-9.8,14.2-19.4,21.1-29.3c1.3-1.8,2.8-4.8,5.4-3.5
		c2.8,1.4,1,4.2,0.1,6.2c-7,15.8-15.9,30.6-27,43.9c-1.7,2.3-2.7,4.9-4.7,8.3c1.6-2.5,2.4-4.1,3.2-5.7c5.3-7.5,11.4-14.4,15.7-22.5
		c1-1.8,2.3-4.4,4.6-3.5c3,1.2,1.4,4.1,0.7,6.2c-1.6,5.1-5,9.2-7.9,13.6c-1.6,2.4-3.7,4.4-3.8,7.5c0.6-1.5,0.6-3.2,1.6-4.4
		c6.4-7.8,11.3-16.4,14.1-26.1c0.6-2.2,1.8-5.2,4.5-4.6c3,0.7,1.6,3.9,1.4,6c-2.3,22.5-12.1,41.6-27.1,58.6c2.6-1.2,4.8-2,7.2-1.2
		c4.6,2,0.6,6.9,3.2,9.9c3.5,0.2,2.5-6.5,7.4-4.7c4.2,1.6,1.6,5,2.9,7.3c-1.1,5.4-7,6.6-9.1,10.4c2.2-1.7,4-4.5,6.9-6
		c2.7-1.2,5.1-0.8,7.3,1.2C495.7,428.8,498.3,436,503.9,440.7z"/>
	<path fill="#071622" d="M855.6,872.2c-6.7-7.2-15.1-10.8-24.6-12.7c-12-2.4-24.4,0-36.3-4.5c-8.1-3.1-17.5-2-25.7-6.2
		c-2.7-1.4-5.6-2.5-6.7-4.9c-5.7-11.9-17.9-17-26.5-25.8c-3.6-3.6-5.4-8.2-9.3-11.4c-8.4-6.8-13.3-15.6-14.1-26.5
		c-0.2-3.3-2.3-4.4-4.7-5.7c-1.3-0.3-2.2-1.3-3.2-2c-1.2-0.7-2-1.7-2.8-2.7c1.8-7.2,6.3-11.8,13.5-13.5c3.9-0.9,5.1-3,4.2-6.7
		c-0.2-0.7-0.1-1.6-0.2-2.3c-1-15.1-0.9-14.8,13.3-20.1c5.3-2,10.3-5.1,15.9-6.4c2.6-0.6,2.4,1.3,2.6,2.8c-3,8.1-11,7.7-17.3,10.1
		c-3.4,1.3-7,1.8-7.3,6.7c-0.4,7.1,0.9,8.4,8,7.3c2.1-0.3,4.1-0.5,6.2-0.2c6.4,2.7,11.9,7.1,16.3,11.9c9,9.8,20.5,15.2,31.9,20.9
		c7.8,3.9,8.8,8.5,2.4,14.3c-8.6,7.9-8,13.1,2.9,17.5c8.4,3.4,16.3,7.2,23.5,12.7c4.6,3.5,10.3,3.8,15.8,4.4
		c6,0.6,11.9,1.6,17.6,3.6C852.5,845.9,854,859.1,855.6,872.2z"/>
	<path fill="#250E20" d="M454.8,367.1c-0.4,0.9-0.6,2.5-1.2,2.6c-2.2,0.6-2.7-1.4-2.8-2.8c-0.4-8.3-6.5-9.6-12.8-10.4
		c-6.2-0.8-12.5,0.8-18.7-1c-5.6-1.7-8.5-4.2-6.5-10.8c1.3-4.4,1.1-9.5-5.9-9.7c-5.7-25.9-0.9-49.1,18.2-68.4c2.7-2.7,4.4-5.5,5-9.4
		c1-6.2,3.4-11.9,8.7-15.9c0.6-0.6,1.7-1,2-0.6c2.1,4.3,6.1,7.4,7.6,12.1c-7.7,4-14.1,9.3-17.1,13.4c9.7-15.7,34.2-18.7,55.7-14.1
		c1.2,0.4,2.3,1.1,2.8,2.3c-0.3,1.5-1.4,2.2-2.7,2.6c-7.4,1.5-15,0.4-22.4,0.6c-0.9,0.8-4.9-1.8-2.5,2.5c1.3,2.3-1.1,2.6-2.3,2.9
		c-3,0.7-5.7,2.1-8.4,3.7c7.4-4.3,15.4-5.9,23.9-5.3c2.2,0.3,5.6-0.2,5.9,2.6c0.2,2.8-3.2,3.1-5.3,3.5c-10.4,2.1-20.6,4.4-27.3,11.1
		c13.1-8.8,28.5-9.6,44.5-3.7c3,1.1,6.7,2.5,5.9,6.3c-0.9,4-4.7,2.1-7.4,1.8c-13.8-1.5-26.5,2.8-39.2,7.1c-0.4,0.1-1.1-0.8-1.3,0.7
		c-0.6,6.4-0.7,6.4-5.5,11c10.6-11,24.2-13.2,38.4-13.6c2.6-0.1,6.2-0.4,6.8,2.5c0.7,3.1-2.8,4.1-5.3,4.7c-5.6,1.2-9.7,5-13.9,7.2
		c3.8-0.7,8.2-2.2,13-0.8c5.6,1.8,6.4,3.3,2.2,7.1c-6.6,5.9-10.5,13.8-16,20.4c-3.2,3.8-4.3,11.3-3.6,12.1c5.8,6.7-1.2,9.2-3.4,13.1
		C462.4,360,457.8,363,454.8,367.1z"/>
	<path fill="#0E121B" d="M701.6,769.7c1.5,0.6,3.1,1.2,4.6,1.8c-0.5,3-0.2,6-0.9,9c-1.3,11.1,0.4,22.2-0.9,33.3
		c-0.4,2.8-1.4,5.2-4.6,5.5c-3.3,0.3-5.2-2.2-6.7-4.7c-5.7-9.1-11.3-18.2-19-25.9c-4.3-4.3-8.6-8.4-13.8-11.6
		c-15.7-9.5-27.5-23.4-40.2-36.2c-5.4-5.4-5.7-12.8-6-19.9c-0.2-4.6-0.8-8.6-4.6-11.9c-4.1-3.5-5-8.2-4-13.6c1-5.4,1.3-11-3.5-15.2
		c-1.9-3.4-4.2,0-6.3-0.4c7.8-15-2.1-25.8-9.3-36.9c-4.9-7.5-9.3-15.7-17.7-21.5c-17,35.4-33.9,70.5-50.8,105.6
		c-3.1,0-1.9-2-1.7-3.6c6-14.9,12-29.7,18-44.6c-9.9,7.8-17.9,17-25.9,26.1c-7.2,8.1-15,15.9-22.6,23.6
		c-16,16.1-31.4,32.8-45.9,50.3c-11.6,14-21.4,29.3-30,45.5c-8.6,16.1-18.6,31.5-27.6,47.4c-2.8,5-6.6,3.6-11.2,3.4
		c8.4-14.4,16.5-28.3,24.5-42.2c5.7-9.9,10.9-20.2,17.2-29.7c5.1-7.8,11.1-15.1,17.5-22c15.5-16.6,31.8-32.4,47-49.2
		c19.9-21.9,39.6-44.2,58.8-66.8c11.1-13.1,19.7-27.5,28.4-42c1.4-2.3,2-3.7-0.3-6c-11.5-11.6-20.7-24.8-28.3-39.2
		c-1.9-3.7-3.1-3.8-6.8-1.7c-9,5-20.2,1.3-27.2-6.6c-9.1-10.3-12.9-22.6-15.5-35.5c-0.5-2.4-1.1-4.4-2.5-6.4
		c-5.3-7.2-8.1-15.4-9.9-24.2c5.4,11.9,15.4,22.1,17.9,34.3c2.3,11.2,6,20.4,13.3,28.3c6.6,7.2,13.4,5.5,17.2-3.6
		c2.7-6.6,2.6-13.7,3.4-20.9c3.5,9.6,7.7,18.8,12,28c9.9,21.4,22.7,39.9,42.5,53.9c11.6,8.3,23.1,17.4,32.1,29.2
		c-8.4-2.8-14-10.6-23.1-13.7c6.2,9.8,11.9,19,17.7,28c13.6,21.1,18.3,45.4,24.2,69.2c2.7,10.9,10.4,18.3,21.7,20.8
		c1-2-2.1-2.5-1.6-4.6c1,0.1,2.3-0.3,3,0.3c4.6,3.8,9.4,7.3,12.2,13c4.1,8.6,11.9,14.3,17.6,21.7c2.2,2.9,3.9,2.1,6.4,0.2
		C696.3,783,699.4,776.7,701.6,769.7z"/>
	<path fill="#062832" d="M850.9,832.8c-13.7-1.4-28,0.2-39.7-10.2c-5.9-5.2-14.2-6.4-21.1-10.1c-10.3-5.5-10.7-11.9-1.3-18.7
		c2.3-1.7,5.5-2.9,5.1-6.3c-0.4-3.6-3.9-4.2-6.7-5.7c-10.7-6-22.5-10.2-30.8-20.2c-4.2-5-10.6-8.3-16-12.3c-1.8-2.5-1.1-4.7,1.3-6
		c12.4-6.5,23.9-14.2,34.1-23.8c0.9-0.9,2.4-1.1,3.7-1.2c6.3,5.4,14.4,9.2,16.2,18.7c0.7,3.9,3.4,7.2,5.9,10
		c11.1,12.3,21.2,26,38.3,30.8c2.7,0.8,3.9,2.1,4.5,4.6C846.7,799.1,848.8,816,850.9,832.8z"/>
	<path fill="#500D1C" d="M530.3,146.6c8.1-4.5,17-7,25-11.8c7.5-4.5,16.3-5.9,25-4.8c7.7,1,15.2,2,22.7-0.7c3,3.1,2,6.2-2.5,7.3
		c-3.6,0.9-7.2-0.1-10.2-0.1c-0.2,6.5-1.3,12.3-7.8,15.5c-2.3,1.2-4.8,2.6-7.3,2.9c-8,1-13.3,5-15.8,12.7
		c-6.9,1.1-11.4-5.8-17.7-5.5c7,2.3,14.2,4.9,20.7,9.3c1,2.4,0.2,5.1-2.3,4.3c-7.2-2.4-9.9,2-12.7,6.9c-0.8,1.3-2.5,1.9-3.5,3.2
		c8,3.5,8.7,4.8,4.7,9.3c-9.2-2.9-18.4-5.5-26.2-6.7c10.4,2.7,23.3,3.8,33.9,11.5c1.7,1.9,4.3,3.2,4.6,6.1c-1.5,1.2-1.6,3.2-2.8,4.5
		c-6.6-0.1-12.7-2.8-19.3-4.2c5,1.6,9.9,2.8,14.2,5.5c2.2,1.4,4.2,1.6,6.3-0.1c2.3-0.3,4.2,0.8,5.7,2.3c3.1,3.1,8.5,7.1,6.1,10.8
		c-2.7,4-7.4-0.8-10.9-2.5c-4.5-2.2-9-4.2-14.3-2.9c-1,0.5-2.1,0.9-3.2,1c-8.5-2-16.3-6.1-25.3-6.3c-2.4,0-4.5-0.3-6.5,1.3
		c-7.4,0.6-11.3-4.1-9.2-11.3c0.6-2.2,1.7-4.3,3.4-6c5.7-1.8,9.7,2,15.6,4.5c-9.8-5.9-19.1-6.4-28.5-6.3c-1.1,0.4,0.1,1.8-0.3,0.8
		c-0.1-0.4,0-0.7,0.4-0.7c2.9,0,6.1-1.5,8.6,1.2c-4.4,4.9-9.8,3.7-13.8,0.5c-4.5-3.6-2.7-8.8,0.5-12.6c3.9-4.6,7.4-10,13.9-11.9
		c3.8-1.1,6.9-3.6,9.6-6.6c4.4-4.8,8.9-9.5,14.5-13C528.2,152.5,530.2,150,530.3,146.6z"/>
	<path fill="#230E31" d="M484.8,418.1c-1.1-0.3-2.9,0.2-1.4-2.1c1.8-2.7-1.2-2.9-2.5-3.6c-1.3-0.6-1.6,0.4-1.4,1.7
		c0.7,4.1-2.1,5.5-5.1,4.7c-3.7-1-4.4-4.1-2.2-7.5c1-1.6,0.4-3-0.2-4.5c-2.1-3.6,0.6-6.1,2.3-8.5c10.6-15,17.9-31.4,21-49.6
		c0.4-2.4,0.6-6.1,4.3-5.1c3.2,0.8,2.4,4.2,2.2,6.7c-0.7,10.1-2.5,20-5.5,29.6c3.2-9.3,4.2-19.2,7.8-28.4c5.7,7.9,1.7,16,0.9,23.9
		c-1.5,4.1-2.7,8.3-4.7,12.1c1.5-2.8,2.7-5.7,3.6-8.7c1.9-3.2,1.1-7.2,2.8-10.5c0.8-1.5,0.5-4.3,2.9-3.8c1.9,0.4,2.2,2.8,2.1,4.7
		c-0.3,6-1.4,12-3.8,17.5c-2.3,5.4-4.2,11-8.2,16.1c6.5-2.3,11.7-6,18-7.1c3.4,0,6,0.8,5.4,5.1c0.4,3.4,2.5,1.4,4,1.3
		c2.2-1.1,4.9,2.6,7.2-1.5c1.1-1.9,4.9-0.9,5.5,2.7c-2.8,15.7,3.1,29.1,12.3,41c11.2,14.4,23,16.3,43,8.4
		c8.8-3.5,16.9-8.4,26.4-10.2c2.7,1.9,6.3,2.8,7,6.8c-13.1,9.2-27.8,14.8-43.4,17.6c-19.8,3.5-37.2,0.5-50.3-17
		c-7.2-9.5-7.9-9-19-3.4c1.3-5.1,4.7-7.5,8.7-9.7c-3-3.3-5.6,0.5-8.1-0.3c-5.2-3.7-8,0.1-11,3.4c-0.3,0.4-0.8,0.6-1.3,0.6
		c-3.9-1.8-7.1-3.7-9.2-8.1c-2.1-4.2-4.3-9.9-11.3-8.3C481.2,421.6,486.2,420.6,484.8,418.1z"/>
	<path fill="#370E22" d="M530.3,146.6c4.4,2.6,0.8,5.7-0.6,6.5c-11.7,6.8-18.1,20.1-31.9,24.7c-4.3,1.4-8.6,6.9-10.9,12.1
		c-2.3,5.1,0,8.5,5.8,8.8c2.6,0.1,5.2,0,7.9-0.1c1.7-1.2,3.2-1.3,4.6,0.4c-0.2,1.3-0.1,2.6-0.6,3.8c-3.4,7.7-1,11.6,7.1,11.6
		c0.8-0.3,1.3-0.1,1.7,0.6c-1.6,3.9-5.3,3.8-8.5,4.4c-3.4,0.7-6.8,1.1-8,5c4.6,1.8,9.6-0.2,14.2,1.3c3.4,1.4,3,3.6,1.3,6.2
		c-2,3-2.4,5.7,1.3,7.7c2.6,1.2,5.2,2.6,7.4,4.5c1.7,1.5,4.4,3,3.3,5.6c-1.2,2.9-4.2,1.5-6.3,0.9c-8-2.3-16.4-2.6-23.1-4.3
		c2.4,0,5.3,2.3,8.5,3.7c1.9,0.8,4.3,2,3.5,4.5c-0.8,2.6-3.4,2.2-5.4,1.5c-3.7-1.2-7.8-1.2-11.4-2.9c-11.2-2.5-22.4-3.4-33.9-1
		c-2.5,0.5-5.4,2.5-8.1,0c-6.2-1-6.4-7.2-9.5-10.9c13.6-21.2,24.6-44.3,44.6-60.8c1.6-1.3,3.4-2.5,5.4-3.2c13-4.6,22.9-13,30.5-24.3
		C522,149.2,525.8,147.4,530.3,146.6z"/>
	<path fill="#C06854" d="M786.6,380.1c-7,12.4-16.2,22.3-30.3,26.6c-3.8,0.6-5.3-3.2-8.3-4.3c-3.7-3.1-3.2-6,0.4-8.9
		c3-2.5,6.5-4.3,9.8-6.4c11.1-7.1,13-14.3,6.7-26.4c-3.2-2.9-1-7.8-4.2-10.7c0-2.1,1.8-3.2,2.9-4.7c2.2-2.8,1.5-6.5,3.2-9.4
		c1.7-2.8,3-6.2,7.4-5.6c4.5,2.8,3.8,7.7,4.8,11.9c2.6,12.2,2.5,20.7-0.2,33.2c4.8-21.8,1.6-39.6-9.8-54.6c-0.4-4-3.8-7.1-3.6-11.3
		c-3-2.8-7.5-0.3-10.5-3.1c3.4-3.2-1.5-2.3-1.9-3.6c0.9-3.9,4.1-3,6.7-2.9c2.5,0.1,5,0.8,7.4-0.3c2-0.8,2.7-3.6,5.3-3.3
		c2,1.1,4.3,3.4,6.2,0.9c1.9-2.6-1.1-4.3-2.6-5.7c-5.9-5.7-11.2-11.8-15.3-19c-1.3-2.2-3.4-5-0.8-7.1c2-1.6,4.4,0.7,6.3,2
		c2.4,1.6,4.6,3.6,6.7,5.4c10.9,9.5,23.4,15.7,37.6,18.6c2.2,2.4,1.8,4.1-1.3,5.2c-5.9,1.2-11.3-0.4-16.7-2.7
		c2.4,5.7,7.2,8.6,12.4,11.1c3,1.7,6.4,1.9,9.7,2.5c1.8,0.3,3.7,0.8,3.9,3.1c0.1,2.3-1.8,3-3.6,3.3c-2.5,0.5-5.1,0.9-7.3,2.4
		c-3.8,1.2-6.9-0.9-10.4-2.3c0.7,6,5.7,8.8,8.8,12.8c-2.8,5.8-4.6,5.8-9.8,0c-0.5,2.6,0.7,5.1,0.5,7.6c-0.1,1.2-0.5,2.3-1,3.3
		c-1.6,4.7-0.6,9.6-0.8,14.4c-1.2,7.8-3.9,15.3-4.6,23.3C790,377.5,788.3,378.9,786.6,380.1z"/>
	<path fill="#630E1E" d="M560.3,207c-0.4-2.6-3-3.1-4.6-4.5c0.2-2.6-1-4.2-3.5-5.1c-1.5-0.6-3.7-0.8-2.9-3.4c0.7-3.8-0.1-6.1-4.7-5
		c-1.7,0.4-3.9,0.7-4.4-1.9c-0.4-2.1,1-3.8,2.9-3.9c3.5-0.3,3.8-3.1,4.7-5.3c1.9-4.6,4.7-6.7,9.6-4.3c2.1,1,4,1.9,4.5-1.5
		c-1.2-1.5-3.8-1.9-3.3-4.6c1.1-7.8,3.4-13,13.3-13.9c7.5-0.6,16-4,16.5-14.5c0.3-5.3,3.5-5.1,7.6-4.4c6.4,1,7.2,0,6.8-5.5
		c2.5-2.6,5.7-3.3,9.2-3.2c7.4-2.3,7.9,2.9,8,7.8c0,4.1,1.2,9.5-6.1,9.2c-8.8-0.3-9.8,0.9-9.5,11.1c0.2,8,1.9,15.5-5.3,21.4
		c-1.4,1.2-0.6,3.6-1.1,5.3c-1.7,5.5-3.6,11-10.5,12c-2.3-0.1-2.4,0.8-1.5,2.7c2,4.5,4,9.1,6,13.6c0.7,1.6,1.6,3.7-0.3,5
		c-1.9,1.2-3.5-0.4-4.8-1.5c-3.1-2.8-6.3-5.4-9.3-8.1c1.3,2.5,6.4,5.3,2.9,7.8c-2.3,1.6-6.2,7.1-10.9,2.2
		C566.9,211.6,561.6,211.8,560.3,207z"/>
	<path fill="#F9F7EC" d="M786.6,380.1c2.8-9.3,5.6-18.7,6.3-28.4c1.7-5-0.8-10.4,1.4-15.4c0.4-0.7,0.9-1.4,1.3-2.1
		c5,0.5,4.6,5.1,5.7,8.2c1,2.9,0.9,6.2,2,9.2c0.7,3.2,1,6.6,3.2,9.4c1.5,6.8,1.5,6.8-5.6,5.9c10.4,3.9,14,12.9,21.7,18.8
		c-2.6-10.6-3.5-20.8-2-31.1c0.5-3.4,0.6-6.9,4-8.9c3.9-1.9,5.7,0.4,7,3.6c2.9,6.9,3.2,14,2.1,21.2c-0.9,2.6-1.9,5.3-4.1,7.6
		c2.6-0.8,2.3-3.2,3.1-4.7c1.9-4.1,4.7-6.3,9.3-3.9c0.4,0.3,0.8,0.6,1.2,1c1.4,1.2,0.2,5.2,4,4c1.4,2,2.1,4.2,2.4,6.6
		c1.6,15.2,6.1,29.4,12.1,43.4c4.3,9.9,2.1,17.6-4.9,22.4c-4.2,2.9-7.7,3.1-9.9-2.3c-3.1-6.5-5.3-13.3-8.9-20.7
		c3.6,8.7,7,16.4,10,24.4c7.7,21.4,8.1,43.5,5.5,65.7c-0.3,2.7-0.3,6-4,6.9c-0.2-4.2-0.3-8.3-0.6-12.5c0-0.3-0.7-0.6-2.3-2
		c-0.2,11.7-8.3,20.7-7,32.2c0.4,3.1,1.4,6.9-2,9.4c-0.4,0.3-2-0.2-2-0.4c-0.3-3.9-6-6.7-2.3-11.3c6.9-21.4,9.1-43.4,8.6-65.8
		c-0.3-13.8-3.7-26.9-8-39.8c-0.9-6-5.9-10.6-6-17c2.7-2.8,4.1-5.8,2.3-9.8c-1.5-3.3-0.5-6.6,0.3-9.9c-0.9,5.1-1.2,10.4-4.7,14.7
		c-0.7,0.5-1.3,0.5-2-0.1c-5-4.5-7.2-10.9-8.8-16.9c-2.3-8.7-8.8-13.3-14.7-18.6c-2.5-2.2-3.6-4.8-2.8-8.1c0.4-1.7,0.8-3.2-1.5-3.5
		c-2.2-0.3-3.6,0.7-3.7,3c-0.1,3.9-0.4,7.9,0,11.8C793.3,381.8,790.3,381.4,786.6,380.1z"/>
	<path fill="#F6F9F5" d="M769.1,706.6c-0.9-0.8-2.7-1.8-2.7-2.5c0.9-8.1-4.5-11.7-10.2-15.2c-1.8-3.5,1.2-4.4,3.1-6
		c0.3-0.3,1.6-0.3,0.7-1.1c-0.4-0.3-1.5,0-2.1-0.6c-0.3-2.7,0.4-6.7-4.3-4.8c-4.2,1.8-5.8-1.5-8.4-3.1c1.3-5.2,6.5-4.5,10-6.5
		c6.9-3.1,12.7-8.1,19.2-11.8c3.2-3.2,9-4.1,8.8-10.1c1.7-8,3.1-8.5,13.9-4.7c1.2,5.3-2.9,8.6-5,12.6c-3,5.8-6.6,11.2-8.5,16.3
		c10.6-20.9,24.6-41,39.7-60.4c3.1-5.5,6.5-10.7,9.2-16.4c0.8-1.7,1.4-4.6,4.1-3.7c2.2,0.7,2.2,3.4,2,5.5c-0.5,6-1.9,11.8-2.9,17.8
		c-1.1,5.1-2.9,10-4.8,14.9c-5.4,16.3-11.6,32.2-22.5,45.8c-7.2,8.6-14.6,17.1-22.4,25.1c-1.5,1.6-3.7,4.2-5.9,2.2
		c-2.5-2.2,0.6-4.3,1.9-5.9c6.1-7.8,12.2-15.5,17.5-23.9c4-6.3,8.2-12.5,10.3-15.9c-2.4,4.1-7.9,10.5-11.6,18.1
		c-7,9.2-13.8,18.7-21.1,27.7C775.1,702.7,773.4,706.4,769.1,706.6z"/>
	<path fill="#701E26" d="M587.2,192.7c0.2-1.6,0.2-3.4,1.9-4c3-1.1,8.2-5.9,7.4-8.3c-1.9-5.2,1.7-7.3,4.4-9.9c2.7-2.6,3.4-5,2.5-9
		c-0.9-4.2-1.9-8.3-0.3-13.3c1.6-5,3.3-7.2,8.2-7.1c3.5,0.1,7.9,1,7.1-4.8c-0.6-4.1,1.9-10.6-6.2-10.4c6.6-2.8,13.5-1.6,20.1-0.6
		c8.7,1.3,17.3,2.6,26.1,2.4c1.6,2.2,0.3,3.6-1.5,4.2c-8.9,3-14.7,8.4-14.8,18.4c0,0.7-1,1.2-1.7,1.5c-3.2,0.2-5.1-3.2-8.5-3.2
		c3.7,2.5,6.2,5.5,7.5,9.6c-0.2,5.4,0.2,10.8,0.3,16.3c0,2,0.1,4.7-2.4,5.2c-2.4,0.5-3.4-2-4.4-3.7c-1.3-2.1-0.3-5.4-3.5-6.5
		c-3.3-1.8-3.8-5.9-6.9-8.1c8.4,10.6,12.1,22,7.5,35.2c-1.2,2.2-1.1,5.6-4.8,5.7c-3.2-9.2-4-19.1-8.2-26.4
		c2.3,8.1,8.2,16.8,5.8,27.4c-5.9-0.8-6.4,5.4-9.7,7.9c-1.9,1.4-2,5-5.5,2c-0.6-0.5-0.1-1-0.6-0.3c-9.6,12.5-8.5-2.5-10.6-4.9
		C592.6,203.6,589.2,198.4,587.2,192.7z"/>
	<path fill="#103D3B" d="M844.5,782.3c-6.9-3.8-15.2-5.1-20.9-10.6c-12.1-11.7-27.3-21.2-31.2-39.5c-0.3-1.2-1.1-2.9-2-3.2
		c-5.6-1.3-7-7.1-10.9-10.1c0.9-5,4.3-7.4,8.7-9c12.9-3.7,24.2,3.7,36.3,5.6c11.3,1.8,12.1,13,14.7,21.9c0.3,1.2-0.1,2.6,0.7,3.8
		c1.7,12.6,3.4,25.2,5.1,37.9C844.8,780.2,844.7,781.3,844.5,782.3z"/>
	<path fill="#342131" d="M660.2,518.9c-1.7-4.4-1.3-8.9,0.4-12.9c1.9-4.6-0.1-5.7-3.9-5.9c-2.6-0.2-5.2,0.1-7.9-0.1
		c-7.8-0.6-13.6-4-15.5-11.9c-1.4-5.8-3.9-11.4-3.6-17.6c-4,1.1-1.4,5.7-4.1,7.4c-2.4-6.3,0.7-12.2,7.9-16
		c1.6,10.4-0.2,21.7,10.5,29.5c5.7,4.2,12.1,4.1,16.8,1.5c7.2-4,14.3-4.6,21.7-3.2c5.9,1.1,11.4,1.2,16.9-1c1.4,3.1,5.3,4.8,4.9,8.8
		c-2.7,2.4-2.9,5.2-1.4,8.5c1.5,3.3,2.5,6.9-1,10.5c-2.6-3.1-1.5-7.4-4-9.2c3.1,5.6,4.2,12.2,3.3,19.1c-0.6,4.4-4.1,6.9-7.7,8.2
		c-3.9,1.3-3.6-3.5-5.2-4.5c-0.5-1.9-1.7-0.6-0.8-1.1c0.1-0.1,0.2,0.2,0.4,0.6c1.9,3.7,1.1,6.5-2.4,8.7c-2.2,1.4-4,3.4-5.9,5.2
		c-4,2.8-1.2,6.9-2,10.4c-3.6,4.1-8.4,3.6-13.1,3.1c-2.8-0.9-4.1-2.3-1.6-4.9c2.1-2.2,5.1-3.7,6.4-6.7c0.9-4.9-3.9-7.9-4-12.5
		c-0.3-2.5,5.4-6.1-1.6-7.5c-1.5-0.3-1.9-2.9-1.3-4.8c2.6-3.2,4-6.7,2.4-10.8c-0.3-0.7-0.5-0.8-1.2,0.4c0.8,1.7,3.2,3.9,1,6.5
		C663.4,517.7,662.4,519.5,660.2,518.9z"/>
	<path fill="#7E2F2A" d="M630.1,168.8c2.9-1.3,4.9-0.7,3.9,2.8c-1.2,3.7,1.7,4.8,3.5,8.2c1.1-8.4-1.4-15.3,0.4-22.1
		c0.7-0.4,1.4-0.4,2.1,0c3.7,5.8,4.8,12.4,6.5,18.8c-1.9-7-3.2-14.2-6.8-20.7c-0.6-1.4-1.2-2.9-0.1-4.4c0.6-1.1,1.9-2.1,1.9-3.2
		c0-9.2,4.8-15.6,13.3-17.2c2.1-0.4,3.4-1,3.6-3.2c12.8-0.4,25.3,0.4,36.3,8c2.6,3.4,2.9,5.9-2.4,6.8c-2.7,0.5-5.7,2.8-7.7,2.6
		c-4.3-0.3-2.9,2.9-4.1,4.4c-1.8,3-0.8,6.4-1.9,9.5c-1.3,2.1-1,5.9-5.6,4.4c-2.3-0.8-1.3,2-2,3.1c-0.9,1.7-0.2,5.5-4.2,3.1
		c-0.6-1.4-1-2.9-1-3.3c1.8,7.8,0.2,16.5-2.9,24.9c-0.7,1.9-1.7,4.4-4.1,4c-2.5-0.4-2.4-3.1-2.6-5.1c-0.7-6.8,0.6-13.6-0.8-20.3
		c-0.2-0.7-0.3-1.5-0.4-2.3c0.6-4.5-1-8.7-2.4-12.6c0.5,2.6,2,5.1,2.2,7.9c0.1,1.8,0.2,3.7-2.2,4.3c-0.5,0.1-1.2-0.5-1.1-0.3
		c4.2,7,2,14.7,2.1,22.1c-3,8.2-3,8.2-12,4.5c-0.4-0.2-0.4,0.9-0.8,1.2c-2.7,2.2-5.6,3.8-9.3,2.7c-1.2-1.2-1.4-2.7-1-4.3
		c1.6-5.9,1.1-11.8-0.6-17.7C629.5,173.3,627.9,170.9,630.1,168.8z"/>
	<path fill="#F8F2E6" d="M810,292c-12.7-1.5-18.3-1.6-50.2-27.1c1.4,7.9,7,12.6,11,18c2.5,3.3,6.2,5.8,8.6,9.2
		c1.5,2,6.1,4.8,1.9,7.4c-2.5,1.6-7.9,3.5-9.4-2.8c-0.3-0.4-0.5-0.8-0.5-1.2c0-0.4,0.1-0.7,0.1-0.6c1.8-1.8,1.7-1.9,0.4-1.3
		c-0.7,0.3-1.3,0.7-2.1,0.7c-4.2-1.4-6.9-4.2-8.3-8.3c0.7-4.1-0.5-5.3-4.3-2.9c-2,0-3.7-0.7-4.8-2.6c1.2-4.8,3.5-9.1,1.2-14.6
		c-1.6-3.7,1.7-7.2,5-9.6c6-0.9,8.5,4.2,10.8,7.7c7.1,10.4,17.5,14.1,29,16.3c2.7,0.5,5.6-0.2,9.4,1.7c-4.5-2.7-8.5-3.3-11.9-5.3
		c-5.7-3.4-14.5-2.1-16.6-11c-10-1.6-16-11-25.8-13c-5.5-4-5.5-4.4,0.5-7.8c8.9,1.4,15.2,7.9,22.8,11.7c2.3,1.1,4.3,3.1,7,3.4
		c5.5,1.7,11.1,3.3,16.8,4.1c10,1.3,19.4,0.1,27.2-7c3.4-3.1,8.1-3.6,12.1-5.4c3.2-1.4,8.1-0.5,9.4-5.4c2.3-3.1,5.8-3.2,9.2-3.3
		c2.7,2.7,1.1,5.3,0.1,8c-5,12.9-14.9,20.6-27.3,25.6c-2.5,1-4.7,1.3-4.6,5.6c0.1,3.8-5.2,2.9-8.2,3.9c13.4-2.9,20-6.7,31.4-17.8
		c1.5-1.5,2.9-4.6,5.6-2.7c2,1.5,0.2,3.9-0.5,5.8C849.2,288.2,827.8,298,810,292z"/>
	<path fill="#CF9061" d="M810,292c8-0.5,16.1,0.3,24-2.8c11.1-4.3,17.9-11.7,21.9-24.4c-11.5,12.4-22.5,22.8-39.9,22
		c3-3,7-2.3,10.8-4.7c-2-0.9-3.6-1.6-6.9-3.1c16.2-6.1,30.6-12.6,37.3-28.6c3.8,0.4,2.2,3.1,2.2,5.1c1.2,9.6-4.9,18.5-3.1,28.5
		c3.4-1.8,2-6.2,5.3-8.2c0.2,4.8-0.4,9.3-2.4,13.2c-5.4,10.7-8.8,22.3-15.7,32.2c-1.5,2.2-1.6,4.4-0.1,6.5
		c3.8,5.7,3.6,12.4,4.5,18.8c2.2,5.7-0.9,11.8,1.3,17.5c0.3,0.5,0.4,0.9,0.3,1.5c0.2,3-1.7,2.4-3.5,2c-4.5-6.9-6.5-14.6-6.7-22.7
		c-0.1-4.7,0.3-9.3-1.4-13.8c-1.9-3.3,3-8.4-2.8-10.7c-0.6-1.1-0.2-2.1,0.5-2.9c3.3-2.3,4.2-6.6,7.7-8.7c-3.1,1.4-6.2,2.2-9.6,2.1
		c5.9,0.5,6.4,2.6,1.8,6.1c-7.6,6.3-16.3,6.4-25.2,3.7c-2.3-0.7-5.5-1.4-3.6-5.2c1.5-5.7,7.2-1.6,10.5-4.6
		c-4.1-3.4-10.4-0.1-13.8-4.5c-1.4-2.6-4.5-3.4-6.2-5.7c-0.8-1.1-1.1-2.3-0.4-3.6c0.8-1.4,2.1-1.3,3.4-0.8
		c12.6,4.7,24.9,3.3,36.9-2.1c1.4,4.8,1.4,4.8-6.3,7.8c7.2-0.8,9.2-6.8,13.8-9.1c-0.9-0.6-1.7,0.4-2.6,0.2c-5.1,0.2-9.4,3.1-14.1,4
		c-6.6,1.4-13.9,4.8-19.9-2C810.3,294.9,811.4,294.2,810,292z"/>
	<path fill="#222631" d="M671.1,545.6c-1.5,4.2-5.5,5.9-8.6,8.4c-0.1,0.1,0,0.5,0.2,0.7c0.1,0.2,0.4,0.3,0.6,0.5
		c1.7,1.9,2.3,4.2,2.2,6.7c-0.7,2.1-1.7,3.7-4.4,3c-2-0.7-3.9-1.4-5.9-2.2c-2.2-0.8-5-2.2-6.4,0.2c-1.3,2.2,3.2,2.2,3,5.8
		c-10.3-9.3-20.6-1.9-30.7-0.6c-9,1.2-10.7,0.1-13.5-10.8c-3.8-15.4,3.2-28,9.3-41.1c-3.1,15-11.1,29.6-3.1,46
		c0.9-5.9-0.9-11.6,2.5-16.4c2.3,1.2,0.7,3.8,1.9,5.3c-0.3-7.2,2.9-13,8.6-17.6c-1.4,3.2-2.8,6.4-4.2,9.5c6.1-1.8,6.1-1.8,8.8,10.3
		c0.4-9.4,3.2-18.2,8.3-25.8c4.9-7.3,3.2-18.5,15.1-22.9c-8.5,10.4-9.6,22.1-12.4,33.4c3.4-3,2.9-7.5,4.7-11.2c2-4,3.8-8,7.8-11.3
		c1.2,6.7,2.3,12.9,3.4,19.1c4,1.6,4.7,6.1,7.6,8.6C668.2,542.9,671.2,540.9,671.1,545.6z"/>
	<path fill="#73224A" d="M661.6,381.4c-4.5,2.3-7.8,5.6-9.3,11.4c2.9-2.4,5.2-4.3,7.5-6.1c-5.3,9.4-4.4,19.8-6,29.7
		c-10-0.9-10-0.9-11.9-8.1c-0.8,1.9-0.2,4-1.1,5.8c-0.7,1.6-1.3,3.9-3.8,1.7c-1.6-2.9-1.1-6.1-1.2-9.2c0-5.2,0.9-10.5-0.5-15.5
		c-1.6-5.8-3.5-11.6-10.4-13.4c-6.7-5.3-6.9-6.6-0.8-11.1c1.9-1.4,3.4-3.1,4.7-5.1c9.7-9.9,21.5-14.9,35.5-14.7
		c6.2,3.1,8.9,9.1,4.7,12.6c-8.4,7-7.4,13.2-0.5,19.6C666.4,382.1,663.5,380,661.6,381.4z"/>
	<path fill="#842F4C" d="M661.6,381.4c1.2-1.7,3.3-1.2,5.1-1.7c-8.9-9.9-8.9-11.3,0.1-19.9c3.9-3.7,2.9-8.1-2.7-11.5
		c9.6-10.7,12.2-25.6,22-36.2c1.9-0.5,3.4,0.7,2.9,2.2c-1,3.3,1.4,4.2,3.1,5.8c1.2,2.4-1,4.3-0.8,6.6c-0.4,1,1,0.6,0,0.3
		c-0.2-0.1-0.1-0.3,0-0.8c0.4-1.8,1.1-3.4,3.3-3.6c4.1,2.4,3.5,7,5.1,10.6c-2.7,4.4-7.1,6.8-11.1,9.7c-8.9,6.4-10.8,12-7.2,22.3
		c5.9,16.5,14.2,31.4,29.8,40.9c1.5,1.5,2.5,3.2,3.6,5c2.1,3.5,1.1,5.8-2.8,6.7c-8.8,0.1-13.4-7-19.4-11.5
		c-6.5-4.9-9.8-12.6-15.2-18.5C673.2,383.2,668.2,380.4,661.6,381.4z"/>
	<path fill="#974535" d="M729.5,150c9.5,1.2,17.3,4.8,22.1,13.8c1.8,3.5,5.7,5.2,9.1,7.1c2.9,1.6,6.2,3,7.1,6.7
		c1.2,3.6,0.6,6.3-3.7,7c-1.2,0.1-2.5,0-3.6-0.4c-3.8-2.3-7.6-3.9-11.6-0.4c-4.6,2.5-9.1,5.1-13.6,7.8c-1.3,0.8-2.9,1.7-4.3,0.3
		c-1.3-1.4-0.6-3.1,0.4-4.3c3.8-4.6,7.1-9.8,13.3-11.7c-3.9,0.9-7.6,2.5-11.5,3.4c-3.5-0.4-5.8,1.1-7.5,4.2c-2.2,4.1-4.9,7.8-9.3,10
		c-4.8,0.6-5.3-1.8-4-5.6c1.5-3.3,3.1-7.1,6-9c3.7-2.4-0.6-3.4-0.1-5c1.9-2.4,4.6-4,7.5-6.4c-2.9,2.1-5.2,3.8-7.1,5.9
		c-1.6,4.2-5.5,6.7-7.4,10.7c-2.3,3.6-5.6,6-9.1,8.2c-1.8,1.2-3.9,3.3-6.1,1.2c-2-1.9-0.8-4.3,0.2-6.4c0.4-0.9,1.1-1.7,1.7-2.5
		c2.5-5.5,6.8-9.5,10.1-12.3c-2.7,2.7-7.4,5.7-9.4,11.1c-1.9,2.3-3.8,4.7-6.7,5.9c-3.5,1.1-5.1-0.4-4.1-3.8c1-3.7,2-7.5,4.6-10.4
		c3.4-3.9-3.2,0.8-1.4-1.7c-1.8-3.8,0.2-6.5,2.8-8.6c2.6-2.1,3.9,1.1,5.9,1.9c1,0.3,2.2,0.6,3-0.2c6.1-6.7,14.5-8.7,22.7-11.1
		C726.4,153.3,727.1,151,729.5,150z"/>
	<path fill="#110D24" d="M486,509.7c-5-4.2-7.9-9.1-9.1-14.7c-2.3-10.8-6-21-11.4-30.7c-0.9-1.6-2.3-3.3-0.7-5
		c1.3-1.3,3.3-1.5,5.2-1c2.5,0.7,5,1.9,7.5,2c4,0.2,6.9,7.1,11.6,1.8c1.8,1.9,4.4,3.5,5.3,5.7c3.1,7.7,7.3,14.1,14.9,18.2
		c2.2,1.1,4,4,3.6,6.7c-1.1,7.4-0.4,14.1,4.6,20.4c1.9,2.4,3.5,6.9-1,9.7c-4.2,2.6-8.3,3.3-11.7-1.3c-0.8-1-1.4-2.2-2.5-4.1
		c-3.1,4.7-0.3,8.8-2.4,12.8c-2.2-4.9-4-9-3.2-13.8c0.2-1.2,0.4-3.1-0.2-3.7c-7.4-6.9-5.1-16.6-7.5-24.9c-1.1-3.7-0.8-7.7,2.8-9.8
		c3.7-2.2,0.8-4.2,0.1-5.6c-1.7-3.1-4.9-5-8.4-5c-2.8,0-3.5,2.5-3.5,5.1c-0.2,9.8,1.3,19.2,4.3,28.6
		C484.9,503.5,486.8,506,486,509.7z"/>
	<path fill="#8B372D" d="M699.6,168.8c-6.9-5.3-7.5-0.4-7.9,4.9c0.3,5.6-2.6,9.9-5.2,14.5c-4.8,8.1-12.9,8.1-20.9,8.3
		c-1-8.9-0.4-17.6,2.7-26c1.8-2,1-4.5,1.2-6.7c0.2-1.7-0.8-4.1,1.3-4.9c2.4-0.9,2.4,2.1,3.6,2.9c2.5,1.9,1.1-2.4,2.8-2.3
		c0.9,2.4,0.9,2.4,3.5-0.5c1.3-0.2,2.4,0.4,3.4,1.1c2.8-1.3,3.4-4.1,5.1-7.8c-0.2,0.3-1.6,0.4-0.7,0.9c0.1,0,0,0.3-0.2,0.7
		c-0.6,1.4-0.9,3-2.8,3.2c-2.9-0.3-3.8-3.3-6-4.6c-0.9-1.3-1.7-2.5-0.5-4.1c2.5-1.5,1-4.4,2.1-6.4c2.1,0.2,1.5,3.8,1.9,3.2
		c2.7-4.3,6.6-4.2,11-4.3c3.6-0.1,0.2-3.3,0.9-4.9c7.8,13.8,23.1,9.7,34.7,14.2c-1.5,1.9-1,4.8-3.3,6.2c-9.2,1.3-17.8,3.9-23.8,11.8
		C701.7,168.9,700.7,169.1,699.6,168.8z"/>
	<path fill="#DDA874" d="M846.3,367.5c1.4,0,2.6-0.4,3.3-1.7c4.7,10.6,6.7,21.9,7.9,33.4c0.8,8.4,2.3,16.3,6.3,23.8
		c5.4,10.3,5.5,20.3-4.1,28.4c-8.8,7.5-3.7,16.6-3.1,24.9c0.7,8.7,1.4,17.4,0.3,25.9c-0.8,6.4,2.2,9,6.4,11.9
		c7.5,5.2,14.9,10.6,23.3,14.5c1.9,0.9,4,1.6,4.1,4.2c0.3,3.6,6,2.1,5.9,6.1c1.1,1.8,2.2,3.5,3.4,5.3c-1.5,2.7-3.3,1.9-5,0.4
		c-2-1.8-4.1-3.1-6.9-2.8c-6.4-2.3-10.3-7.9-15.3-12c-2.6-2.2-5.6-3.9-8.3-5.9c-4.5-3.5-7.1-3.3-8,3c-0.4,3.1-1.4,6.1-2.1,9.1
		c-0.4,1.8-0.6,4.5-3.8,3.2c-2.1-3.2-1.1-7-2.1-10.4c-0.1-1.3,0.2-2.4,0.9-3.5c0.1-1.5,0.3-2.9,0.4-4.4c4.7-16.8,3.7-33.9,1.7-50.9
		c-1-7.9-3.3-15.7-5-23.5c-1-2-1-3.4,1.7-3.5c1.9,4.7,4.4,5.4,8.5,1.9c5-4.3,6.5-9.4,4.7-15.4c-1.5-5.2-3.5-10.4-5.7-15.3
		c-5.8-12.8-6.6-26.7-9.5-40.2C844.7,371.7,844.4,369.6,846.3,367.5z"/>
	<path fill="#BB6948" d="M788.3,198.5c6.8,8.1,13.1,16.4,17,26.5c2.6,6.8,11.3,6.6,16,11.3c2.7,7.3-4.5,6.5-7.5,9.2
		c-2.9,0.6-5.1-0.7-7-2.7c-6.4-6.5-14.1-10.7-23.2-12.3c-2.8-0.5-6-1.1-5.3-5.3c2.6-1.8,5-0.9,5.8-0.6c-4.7-0.4-10.8-3.1-17.5-3.2
		c-5.7,0.1-11.4-0.3-16.9,2.3c-2.7,1.3-6.9,1.4-7.9-2.5c-0.9-3.5,2.8-4.6,5.5-5.6c7.4-2.7,15.1-3.5,22.2-2.2
		c-1.8-0.9-4.7-0.2-7.3-0.8c-2.2-0.6-4.4-1.6-1.2-4c8.3-2.1,16.3-1,24,3.4c-1.6-1.7-3.9-1.2-5.4-2.4c-1.2-1.4-2.7-2.5-4.1-3.7
		c-3-4.2-10.1-3.4-11.3-9.6c2-2.6,4.9-2.7,7.8-2.9c2.4-0.1,4.8,0,7.1,0.5C782,195.9,784.9,197.6,788.3,198.5z"/>
	<path fill="#905646" d="M765.6,523.8c-2.8,1.8-7.5,1.2-7.8,6.1c-1.8,1.3-1.2,5.2-4.4,4.8c-2.7-0.3-3.3-3-3.9-5.3
		c-3.1-5.3-2.6-11.5-4.4-17.1c-1-3.2-1.6-6.6-4.3-9c-0.5-0.5-1-1.1-1.4-1.7c-0.6-1-1-2-0.4-3.1c1.3-1.6-4.3-3.4,0.5-5.3
		c2.9-1.2,0.1-3.1-1.2-3.8c-2.9-1.7-6.1-2.9-10.1-4.8c6.6-1.2,10.9,2.1,15.5,4.4c6,1.2,6.4,7.5,9.8,10.5c-1.2-3.6-6.5-5.8-4.9-11.2
		c6.2-1.2,8.4,3.7,11.5,7.4c1.3,1-1.5,5.5,3.2,3.7c0.7,0,1.4,0.1,2,0.4c1.7,1.2,3.1,2.7,3.7,4.7c0.9,3.2,0.5,7.1,5.3,7.8
		c0.2,0-0.1,1.4-0.6,2c-0.5,1-1,2-1.5,3.1C769,518.4,771.7,525.8,765.6,523.8z"/>
	<path fill="#55363B" d="M704.2,497c-1.1-3.1-6.8-3.6-4.8-8.5c6.8-5.7,14-11.1,15.3-21.9c3.4,7.8,6.5,0.6,9.6,1.5
		c3.1-0.7,5.1-0.3,3.8,3.6c-4.6,5.7-12.2,8.3-15.6,15.2c0.4,0.6,0.6,1.3,0.7,2.1c-0.2,1.6-1.3,2.8-2.3,4c-1.2,1.5-1.9,3.3-0.5,4.9
		c3,3.2,0.8-2.2,3.1-2c2.4,0.3,4.5,0.7,6.5,1.9c3.9,2.4,6.2,6.1,8.4,10c1.4,3,1.9,6,0.7,9.1c-1.2,2.1-3.3,3.2-5.3,4.4
		c-4.4,4.3-12.1,3.9-14.8,10.7c-0.5,1.4-2.4,2.2-4,1.6c-2.2-0.8-3.1-2.8-3.2-5c-0.2-3.5,1.4-6.6,2.7-9.7c1-3.6,6.1-6,3.2-10.7
		C706.6,504.4,703.1,501.4,704.2,497z"/>
	<path fill="#724644" d="M723.2,520.5c0.9-2.2,2.7-3.2,5-3.2c1.8-3.4,0.6-6.6-0.9-9.7c-2.3-5.1-5.7-9.4-10.9-11.2
		c-4.2-1.4-0.6-6.2-4.1-7.3c0-0.8,0.1-1.5,0.1-2.3c3.6,1.2,7.2,2.4,10.9,3.6c0.7,0.9,1.8,1.5,2.7,2.1c0.2-0.8-0.2-1.4-0.3-2.1
		c-0.7-0.7-2-1.4-2-2.2c-0.1-1.6,1.3-0.9,2.1-0.7c6,1.8,8.5,7.7,13.3,11c0.5,1,1,2,1.5,3.1c-0.4,0.6-0.6,1.3-0.6,2
		c0.6-0.6-0.1-1.5,0.5-2.1c7,2.8,6.4,9.9,7.6,15.2c0.9,3.9,1.4,7.8,3.4,11.3c-0.5,0.7-1.2,1.2-2,1.6c-7.3,0.8-14.2,4.7-21.8,3.8
		c-1.5-1.7-1.6-3.7-1-5.8c2-4.1,5.2-3.9,8.6-2.9C732,521.9,725.1,527.8,723.2,520.5z"/>
	<path fill="#461B42" d="M638.3,416.4c2.3-3.3,0.9-7.1,1.4-10.6c0.2-1.3,0.2-2.9,1.9-2.8c0.8,0,2.2,1.3,2.1,1.9
		c-1.2,7.9,6.4,8,10.1,11.5c0.8,1.2,3.4-0.9,3.1,0.8c-1.4,10.1-1,20.9-9,29c1.1-6.9,2.1-13.8,0.4-21.3c-2.9,11.4-8.4,20.5-20,24.4
		c-2.1-2.1-6.7-1.7-6.3-6.3C628.9,435,633.1,425.5,638.3,416.4z"/>
	<path fill="#1C3134" d="M756.3,668.6c-3.7,1.6-7.4,3.2-11.1,4.8c-13.6,3-27.2,5.8-41.1,6.8c-20.9,1.4-38.8-5.6-55-18.2
		c10.8-2.4,18.9,3.5,27.8,7.3c16.9,7.3,34.6,4.2,52.1,2c8.6-1,16-5.2,24.1-7.4C756.6,663.8,757.9,665.2,756.3,668.6z"/>
	<path fill="#C78254" d="M849.6,246.2c2,4.9-2.5,5.5-5,6.2c-7.4,2.3-13.9,5.5-20.5,9.9c-9.9,6.7-22.1,4.7-33.4,1.8
		c-2.5-0.7-5-1.6-7.5-2.4c-2-3.2-0.9-5.1,2.5-6c2.1-0.3,4.1,0.6,6.2,0.7c4.9,3,10.6,1.9,17.4,3.5c-6.1-1.9-11.4-0.2-15.8-3
		c-6.3-1.6-12.9-1.5-18.9-4.4c-3-1.4-6.6-2-7.6-6c3-3.4,6.3-1.1,9.4-0.2c8.3,2.4,16.6,4.6,25.2,5.5c2.1,0.2,6.1,2.2,5.4-3.4
		c-0.2-2,2.8-1.7,4.6-1.3c3.1,0.6,6,2,9.2,1.9c0.2,0,0.4-0.2,0.5-0.3c0.1-0.2,0-0.5,0-0.8c2.1-1.6,4.2-1,6.4-0.2
		C835,247.5,842.5,249.8,849.6,246.2z"/>
	<path fill="#AA975F" d="M849.7,528.4c2.9,3.4,0.6,7.6,1.7,11.3c1.6,5.7,0.2,10.8-3,15.6c-3.3,18.9-3.7,38.2-8.1,56.9
		c-1.5,1.5,0.5-5.7-2.5-1c-0.7,1.1-2.3,1.2-3.6,0.7c1-7.2,1.9-14.5,3.1-22.9c-4.8,7.9-8.8,14.6-12.9,21.4c-1.9-1.3-1.5-3.4-2-5.2
		c9.3-16.3,16.5-33.5,20.9-51.7c0.8-7,2.3-14,3.9-20.9C847.6,530.9,847.6,529.2,849.7,528.4z"/>
	<path fill="#A97054" d="M773.8,514.5c-1.8-4-4.9,0.8-7.4-1.6c4.2-4.8,0.9-8.8-2.1-12.8c0.5-2.6,2.3-3.8,4.6-4.4
		c0.6-0.9,3.4,2.6,2.5-1.2c-1.3-5.2-5.5-8-9.4-11.5c6.6,3.2,14.2,2.8,21.7,7.8c-1.6-3.3-2.7-5.4-4-7.9c3.8,0.5,5.3,2.5,6.9,4.6
		c1.3,1.2,3.4,0,4.5,1.6c1.1,4.5,1.8,9.1,0.9,13.8c-0.7,3.3-1.3,6.7-5.7,7.1c-1.2,0.1-3.1,0.9-3.2,1.6
		C781.8,518.1,777.4,514.9,773.8,514.5z"/>
	<path fill="#C6B476" d="M896.6,538.9c-1.8-2.2-6.2-1.9-5.9-6.1c24.5,8.8,47.5,20.9,70.1,33.7c5.7,3.2,10.1,8,15,12.2
		c-3,3-6,3.2-9.7,0.8C943.5,565.1,920.1,551.9,896.6,538.9z"/>
	<path fill="#304742" d="M769.1,706.6c10.8-10.5,18.1-23.7,28-34.9c1.3-1,2.3-2.8,4.4-1.4c-6.8,9.6-13.2,19.5-20.8,28.6
		c10.6-7.3,17.3-18.3,26.3-27c1.7-1.3,2.8-0.7,3.6,1.1c-0.7,6.8-6,10.9-9.9,15.5c-9.7,11.3-20,21.9-32.7,30
		c-5.4,3.4-11.3,5.6-17.9,5.3c0-1.3-0.4-2.4-1.6-3.1c5-2.6,10-5,14.8-7.8C765.8,711.5,768.8,710.3,769.1,706.6z"/>
	<path fill="#954C56" d="M712.1,417.9c5.9-4.5-1.1-7.1-1.6-10.6c1.1-1.4,2.7-1.5,4.2-1.3c8.3,1.2,16-1,23.7-3.5
		c3.1-1,6.3-2.8,9.7-0.5c4.5-1.5,5.1,3.7,8.2,4.7C742,412,728.4,420.2,712.1,417.9z"/>
	<path fill="#6F7762" d="M822.3,605.3c2.2,1.1,1.8,3.3,2,5.2c-16.1,21.1-30.6,43.2-43.8,66.2c2.6-13.5,10-24.7,16.6-36.4
		C805.3,628.5,815.4,618.1,822.3,605.3z"/>
	<path fill="#7E675C" d="M750.1,528.4c0.5-0.1,0.9-0.2,1.4-0.3c-0.2,8.6,3.7,2.9,6.3,1.8c-0.6,5,0.1,9.9-7.7,10.9
		c-3.6,0.5-7.5,5.1-11.3,7.8c-12.4,8.6-26.7,12.3-40.9,15.9c-1-1.1-3.2-0.1-3.5-2.2c1.6-3.4,5.3-2.4,7.9-3.6
		c1.1-0.3,2.1-0.6,3.2-0.8c4.3-0.8,8.3-2.3,12.4-3.9c2-0.8,3.9-1.6,5.9-2.3c3.3-0.2,3.5-3,4.4-5.3c5.5-3.1,10.1-7.5,15.8-10.2
		C747.5,534.6,747.6,530.7,750.1,528.4z"/>
	<path fill="#C9B399" d="M835.2,429.1c9.7,25.8,10.4,52.4,6,79.2c-1.3,7.7-3,15.3-4.4,22.9c-0.4,2.2-1.1,4-3.2,5
		c2-14.4,5.5-28.6,6.7-43.2c1.6-19.5,0.5-38.5-6.1-57c-0.4-1.2-0.5-2.6-0.7-3.8C833,430.6,832.2,428.9,835.2,429.1z"/>
	<path fill="#4B5B52" d="M764.2,643.3c-12,10.7-25.8,14.5-41.5,11.4c5.9-2,12.5-0.4,18.5-3.4c-1.6-2.3-4.7-0.4-6.8-4.3
		c10.1,0.3,18.1-5.9,27.9-5.4C763.9,641,764.2,641.9,764.2,643.3z"/>
	<path fill="#222527" d="M655.6,708.5c16.8,7.2,28.7,20.5,42,32C680.2,734.3,668.9,720,655.6,708.5z"/>
	<path fill="#515151" d="M719.7,580.1c-15.5,4.2-31,8.9-47,2.2c-1.7-0.7-3.4-1.4-5-2.2c-0.7-0.3-1.2-0.9-3.7-2.9
		c18.9,5.7,35.8,3.8,52.7,1.3C718.1,578.2,719.9,577.3,719.7,580.1z"/>
	<path fill="#88515E" d="M728,471.7c0-2.5-1.7-3.3-3.8-3.6c10.3-6.5,8.3-19.1,2.5-29c6.5,2.6,9.3,7,9.8,16.1
		C736.8,462.3,735.8,468.8,728,471.7z"/>
	<path fill="#A99286" d="M791,488.9c-1.7-0.1-3.6,0.6-4.5-1.6c1.8-9.3-5.8-12.6-11.2-17c-4.2-3.5-9.1-6-12.1-10.9
		c9.8,5.2,20.4,9.4,27,19.2C792.5,481.7,792.4,485.3,791,488.9z"/>
	<path fill="#47504E" d="M665.8,613.3c-18.6-2.4-28.3-15.4-32.8-33.4c5.3,6.5,7.2,14.4,13.7,18.9
		C652.8,603.1,658.5,607.8,665.8,613.3z"/>
	<path fill="#32373A" d="M603.2,586.7c15.4,13.1,24.7,30.3,32.6,48.6c-11.1-16.5-20.7-34.2-35.2-48.3
		C601.4,586.2,602.2,586.1,603.2,586.7z"/>
	<path fill="#454545" d="M694.5,562.7c1.3,0.3,2.7,0.4,3.3,1.9c-12.2,4.4-24.5,1.8-36.8,0.4c1.2-1.1,2.4-2.2,3.6-3.3
		c4.9-3,9.6-6.8,15.7-2.4c1.4,2.3,3.5,2.6,6,2.3C689.1,561.2,692,560.7,694.5,562.7z"/>
	<path fill="#364643" d="M757.9,681.3c2.6,0.1,4-3.2,7-2.5c-0.2,5.8-8.3,4.7-8.7,10.1c-9.7,3.8-19.7,4.9-30.1,2.6
		C738.1,692.2,748.1,687.1,757.9,681.3z"/>
	<path fill="#A79B90" d="M793.2,511.4c3.4,19.1,0.6,37.1-8.4,54.1C790,547.8,793.4,529.8,793.2,511.4z"/>
	<path fill="#9E957E" d="M811.6,542.1c-0.7,21.6,3.3,41.2-3.6,60.3c0.2-9.6,2-19.1,1.8-28.8C809.5,563.8,807.8,553.9,811.6,542.1z"
		/>
	<path fill="#222631" d="M660.2,518.9c1-1,2.1-2.1,3.1-3.1c1.2,1.5,1.1,3-0.1,4.5c0.9,2.7,0,7.5,5.7,3.7c2.9-2,1.8,1.5,2.1,2.8
		c0.6,3.6-4.9,2.7-4.7,6.1c0,1.4-0.2,2.8-1.4,3.8c-2,0.5-3.4-0.2-4.5-1.8C658.4,529.5,658.8,524.2,660.2,518.9z"/>
	<path fill="#C59C7D" d="M827.6,247.5c-2.1,0.6-4.7-0.7-6.4,1.6c-3.7,0.3-7.4,0.7-8.2-4.4c1.7-3.9,9-2.1,8.3-8.4c1,0.2,2.3,0,3,0.6
		c2.2,1.9,7.7-0.7,7.2,3.6c-0.4,3.4-5.2,2.3-8.2,2.8c-0.7,0.1-1.4,0.2-2.2,0.3C822.4,246.5,825.9,245.5,827.6,247.5z"/>
	<path fill="#A56D57" d="M788.3,198.5c-2.4-1-6.9,3.1-7.4-2.9c-4.5-2.1-9.8-2.3-13.7-5.8c-2.1-1.8-4.8-3.4-4.7-6.8
		c3.9,0.3,5.2-2,5.2-5.4C769.7,189.4,782.8,190.2,788.3,198.5z"/>
	<path fill="#41534A" d="M756.3,668.6c0.1-2.4-1.3-3.7-3.2-4.7c6.8-3.2,13.6-6.4,20.4-9.6c1.6-0.4,2.1,0.3,1.8,1.8
		C769,660.3,762.6,664.5,756.3,668.6z"/>
	<path fill="#887D77" d="M765.5,539.4c-2.1,15.7-14.6,21.8-26.4,28.5c-1.6,0.7-3.2,1.5-3.1-1.4c12.7-5.7,23-13.9,28.6-27.1
		C764.9,539.4,765.2,539.4,765.5,539.4z"/>
	<path fill="#B38B7F" d="M784.3,415.5c-0.1,2.6-1.3,4.1-3.9,3.8c-3.7-0.4-5.4-3.1-5.8-6.3c-0.2-1.9,0.2-4.7,3.1-4.1
		C781.1,409.6,783.8,411.7,784.3,415.5z"/>
	<path fill="#A3A19C" d="M736,566.5c1,0.5,2,0.9,3.1,1.4c-6.3,4.4-10.8,11.4-19.3,12.3c-1-0.5-2-1.1-3.1-1.6
		C724.8,577.3,728.1,568.3,736,566.5z"/>
	<path fill="#F9F7EC" d="M849.7,528.4c-2.2,8.4-4.3,16.8-6.5,25.2c-1.7-9.3,2.4-17.9,3.7-26.8c0.1-0.6,1.6-1.1,2.4-1.6
		C849.4,526.3,849.5,527.3,849.7,528.4z"/>
	<path fill="#766168" d="M715.1,423.3c-11.2,1.8-17.9-1.7-20.5-11.1C700.6,419.2,708,420.8,715.1,423.3z"/>
	<path fill="#473C47" d="M660.3,458.8c2.3,6.2,8.6,10.4,9.4,18.8C662.6,472.4,659.8,466.4,660.3,458.8z"/>
	<path fill="#F5E4DA" d="M759.4,497c-3.4-3.1-6.1-7.3-11-8.5c-0.6-0.3-0.7-0.5-0.5-0.8c0.2-0.2,0.4-0.3,0.6-0.3
		c3-1.2,5.7-4.4,9.4-1.5c2,2.9,4.4,5.5,4,9.4C761.6,496.5,760.9,497.3,759.4,497z"/>
	<path fill="#D7D0C4" d="M835.2,429.1c-1.4,0.6-1.4,1.9-1.6,3.2c-2.6-8.1-7.6-15.3-9.4-23.8c0.5,0,1.1-0.1,1.6-0.1
		c3.4,0.1,3.9,2.1,3.1,4.8C831.1,418.5,833.2,423.8,835.2,429.1z"/>
	<path fill="#696A6C" d="M603.2,586.7c-0.9,0.1-1.7,0.2-2.6,0.3c-6.9-4.9-12.2-11-13.8-19.7C591.1,574.8,597.1,580.8,603.2,586.7z"
		/>
	<path fill="#905646" d="M761.6,495.3c-1.7-3-3.7-5.8-3.6-9.5c5.9,0.8,7.3,6.5,10.9,9.7c-1.1,2-2.6,3.4-4.6,4.4c0,0,0,0,0,0
		C762.6,498.9,761.8,497.3,761.6,495.3z"/>
	<path fill="#997B75" d="M765.5,539.4c-0.3,0-0.6,0.1-0.9,0.1c-3.1-5.4,2.8-10.2,1.1-15.6c4.1-0.1,2.9-5.9,6.7-6.3
		C770,524.8,767.8,532.1,765.5,539.4z"/>
	<path fill="#434246" d="M514,555.3c-2.5-8-3.7-15.6,4.5-23.5C516.1,540.7,514.6,548,514,555.3z"/>
	<path fill="#878C87" d="M775.3,656.1c-0.6-0.6-1.2-1.2-1.8-1.8c3.4-2.9,7.2-5.4,9.7-9.3c1.3-0.7,2.7-1.3,4.4-2.2
		C785.2,649.2,781,653.4,775.3,656.1z"/>
	<path fill="#1A0B23" d="M505.2,440.1c0.1-4.4,3.5-6.5,6.7-7.7c2.2-0.8,1.9,3.7,4.3,4.3C512.5,437.8,508.9,439,505.2,440.1z"/>
	<path fill="#C1B3A1" d="M859.4,255.7c-0.5-1.8,0-4-2.2-5.1c0.2-2.6,2.3-4.9,1.5-7.7c0.7-1.1,1.5-2.1,2.7-3.9
		C862.7,245.3,862.5,250.7,859.4,255.7z"/>
	<path fill="#CBA196" d="M748.6,487.3c0,0.4,0,0.7-0.1,1.1c2,3.8,4.1,7.6,6.1,11.4c-0.4,0.3-0.8,0.7-1.2,1
		c-3.2-3.9-6.5-7.8-9.7-11.8C745.2,488.2,746.6,487,748.6,487.3z"/>
	<path fill="#6F6568" d="M708.3,433.9c4-1.7,8.3-4,10.7,2.2C714.9,437.9,711.7,435.2,708.3,433.9z"/>
	<path fill="#342131" d="M660.3,534.8c1.4,0.5,2.9,1,4.3,1.5c2.4,2.3,2.7,5,1.4,7.9c-1.3,0-3.4,4.3-3.2,0.8
		c0.2-4.8-3.9-6.5-4.4-10.2C659,534.8,659.7,534.8,660.3,534.8z"/>
	<path fill="#3D3D3D" d="M515.9,723.5c0.3,1.3,0.2,2.9,1.7,3.6c-2.2,4.3-4.4,8.6-6.6,12.9C510.8,733.7,513.9,728.8,515.9,723.5z"/>
	<path fill="#464548" d="M526,467.6c0.7-5.6,3.8-7.6,10-7.4C531.8,463.3,528.9,465.4,526,467.6z"/>
	<path fill="#DDA874" d="M849.3,364.3c-4.1-5.5-0.3-11.7-1.3-17.5C850.5,352.6,848.6,358.6,849.3,364.3z"/>
	<path fill="#6E786D" d="M764.2,643.3c-0.6-0.6-1.3-1.1-1.9-1.7c2.8-2.1,5.5-4.2,8.3-6.2C769.6,639.4,767.6,642.1,764.2,643.3z"/>
	<path fill="#C49FA0" d="M725.7,490.5c3.3,0.4,2.3,4.2,4.4,5.6c-3.2-0.8-6-2.1-6.9-5.6C724,490.5,724.8,490.5,725.7,490.5z"/>
	<path fill="#FEFEFE" d="M848.3,555.3c-0.3-5.5,2.2-10.4,3-15.6c1.4-5.5,3.5-10.9,4.1-16.4c0.7-7,3.3-5,7.3-2.8
		c9.9,5.5,17.4,14,26.1,20.9c5.3-0.2,6.9,5.1,10.7,7.2c7,8.7,16.7,14.7,23.1,24c1.3,1.9,3.4,3.3,2.9,6c0.6,6.9-2.8,14.6,5.3,19.8
		c2.7,1.7-0.7,5.4,0,8.2c1.3,5.6-3.2,3.9-5.3,4c-17.3,1.2-34.7,4.9-51.6-2.7c-3.1-1.4-6.5-1-9.6,1.3c-7.8,5.7-13.8,3.4-14.3-6.2
		c-0.7-12-2.8-24-0.5-36.2C850,563.1,850.7,559,848.3,555.3z"/>
	<path fill="#345E47" d="M836.7,700.3c0,1.1,0,2.1,0,3.2c-12.5,0.6-24.7,0.7-32-12.3c-0.4-2.8,0.7-5.3,2.3-7.4
		c6-7.6,10.3-16.5,17.6-23.1c4.4-1,9.5-4.2,11,3.6c0,3,0,5.9,0,8.9C837.2,682.2,835,691.3,836.7,700.3z"/>
	<path fill="#21483E" d="M805.3,690.8c6.5,6.8,13.8,11.8,24,10.6c2.3-0.3,4.9,1.3,7.3,2c1.1,12.6,2.1,25.2,3.2,37.9
		c-2-4.8-4.5-9.4-5.8-14.3c-2.2-8-8.3-10.2-15.2-10.7c-5.1-0.4-9.8-0.6-13.9-4.1c-2.3-2-4.7-1.9-7.8-0.5c-2.5,1.1-6-0.1-9.1-0.2
		c-1.3-3.7,1.2-6.2,3.3-8C796.1,699.2,798.3,692.4,805.3,690.8z"/>
	<path fill="#FEFEFE" d="M844.1,639.6c0.8,4.8,1.6,9.5,2.3,14.3c0.6,4.6-1.1,10.8,7.3,9.6c1.2-0.2,2,1.6,2.1,2.9
		c0.6,11.9,1.7,23.9-8.1,33.3c-1.2,1.2-2.1,3.5-4.4,2.4c-2-0.9-1.8-3.1-1.6-4.9c0.7-7.2,2.4-14.2,1.7-21.6
		c-0.5-5.4-0.3-10.9-2.3-16.1C838.4,652.6,844.6,646.6,844.1,639.6z"/>
	<path fill="#5D7651" d="M835.5,664.3c-2.9-6-7.5-2.2-11.5-2c-1.5-2,0.1-3.6,0.7-5.3c-2.4,4-4.8,8-7.4,11.8
		c-1.6,2.5-3.3,5.5-7.2,4.5c-0.7-1.2-1.8-1.4-3-1.4c9.6-14.1,17-29.3,22.2-45.6c4.7,2.1,3.8,8.1,7.6,10.9
		C836.4,646.3,836,655.3,835.5,664.3z"/>
	<path fill="#FEFEFE" d="M913.1,616.7c10.5,0,21,0,31.5,0c2.4,0,5.3,0,5.3,3.2c-0.1,3.2-3.1,3.1-5.4,3.1c-20.7,0-41.5,0-62.2,0
		c-2.9,0-6.9-0.3-6.8-3.7c0.1-4.3,4.5-2.4,6.9-2.5C892.6,616.6,902.9,616.7,913.1,616.7z"/>
	<path fill="#BFB680" d="M925.5,578.6c-6.7-9-14.9-16.6-23.1-24.1c-1.8-1.6-3.6-3-4-5.5c0.2-1.5,0.6-2.9,2-3.8
		c8.2,8.2,17,16,24.3,24.9c4.4,5.4,9.9,9.9,13.7,15.9c1.5,2.4,3.7,4.3,3.5,9C934.9,590.2,931.9,582.5,925.5,578.6z"/>
	<path fill="#858957" d="M836.8,637.2c-7.1-0.5-5.4-7-7.6-10.9c1.6-4.8,3.3-9.6,4.9-14.4c2,1.1,4.4-7.8,6.1,0.3
		C839.1,620.6,837.9,628.9,836.8,637.2z"/>
	<path fill="#FEFEFE" d="M850.7,623.6c1.7-0.1,3,0.9,2.6,2.2c-0.6,2.1,0.4,5.1-2.3,6.2c-1.9,0.8-2.8-0.8-2.9-2.6
		C847.9,627,847.9,624.6,850.7,623.6z"/>
	<path fill="#5D7651" d="M836.7,700.3c-2.9-8.9-1.2-18-1.2-27.1C836.9,682.2,836.6,691.2,836.7,700.3z"/>
	<path fill="#C6B476" d="M900.4,545.2c-0.3,1.5-0.5,3-2,3.8c-3.2-2.5-6.3-5.1-9.5-7.6c2-2.9,3.6-1.6,5.6,0.2
		c1.5,1.3,2.5,4.4,5.6,2.6C900.3,544.5,900.4,544.8,900.4,545.2z"/>
	<path fill="#FEFEFE" d="M943.3,609.3c-0.2,2.1-1.7,2.5-3.3,2.5c-1.8,0.1-3.9,0-4.1-2.4c-0.1-1.4,1.4-2,2.8-2.1
		C940.6,607.2,942.4,607.3,943.3,609.3z"/>
	<path fill="#FEFEFE" d="M895,758.5c-1.7-0.1-2.7-0.8-2.1-2.4c0.6-1.6,1.2-3.5,3.5-3.5c1.4,0,2.9,0.8,2.7,2.1
		C898.8,756.8,897,758,895,758.5z"/>
	<path fill="#F6F9F9" d="M703.9,779.2c0.7-2.6,0.6-5.4,2.3-7.7c0.5,1,1,2,1.4,3c-0.3,10-0.9,20-0.7,29.9c0.2,7.1-0.3,13.7-6.1,18.5
		c-8.4,7.1-8.8,16.6-8.4,26.4c-0.6-8.1-6.4-16.4,1.8-23.9c1.3-1.2,1.1-2.7,0.2-4.3c-5.5-8.8-10.1-17.8-18.4-24.9
		c-12.4-10.7-25.2-20.2-40.6-25.8c-11.3-4.1-17.1-13.7-21.3-23.7c-5.2-12.2-8.5-25.2-12.8-37.9c-3.3-9.7-0.6-19.2,0.4-28.8
		c1-1.1,1.7-2.9,3.3-0.4c3.2,5,3.4,10.3,2.3,15.9c-1.3,6.2-0.7,11.6,6.1,14.2c2.7,1,2.7,3,2.4,5.1c-1.7,13.9,3.9,24.7,13.9,33.8
		c8.6,7.9,16.7,16.5,26.6,22.9c17,10.9,29.2,25.8,38.9,43.1c2.4,4.2,4.5,5.8,7.4,0.5c1.9-9.1,0.4-18.2,0.9-27.4
		C703.6,785,703.1,782.1,703.9,779.2z"/>
	<path fill="#FEFEFE" d="M767.4,219.5c7.2-0.7,13,3.5,19.4,5.9c-2.6,0.1-5.1,0.2-7.7,0.4c-1.6,2.1-3.8,3.1-6.4,3.3
		c-5.7,0.3-11.5-0.4-17.4,0.8c5.7,0.7,11.3,1.2,15.6,5.4c-0.6,3.3-3.4,3-5.7,3.4c-1.6,0.1-3.1-0.1-4.7-0.5c-2.3-0.5-4.5-1.5-6.9-1.4
		c-0.8,2.9,1.3,5,2,7.4c0,0.7-0.2,1.4-0.7,1.9c-1.3,1-3.8,0.7-3.7,2.9c0,1.3,1.6,1.7,2.9,1.8c2.6,1.4,5.8,2.4,5.9,6.2
		c-3.2,3.9-7.1,7.1-2.5,13.1c3.3,4.3-1.7,7-4.3,9.9c5,4,10.4,7.5,14.1,12.8c1.7,2.4,4.2,4.7,1.3,7.9c-4.6,4.6-10.7-2.3-15.4,1.9
		c-2.5,2.2-4.5,1.8-6.6-0.7c-5.7-6.6-13.1-6.2-20.2-3.9c-5.9,1.9-11.6,4.4-18,4.7c-4.4,0.2-8.4,2.9-11.9,5.6
		c-2.8,2.1-5.6,3.7-9.2,3.7c-4.2,5.9-8.5,12.1-10.3,19c-2.1,7.6-6.8,12.5-12.6,17c-10,1.3-20,2.2-27.8,9.9c-2.1,2.1-4.6,4.4-7.9,4.9
		c-5.8,3.3-11.1,1.5-16.2-1.7c-1.8-1.1-3.6-2.6-2.6-5.1c1-2.3,3.1-2.6,5.3-1.9c0.7,0.3,1.3,0.6,2,0.9c0.7,0.3,1.4,0.6,2.1,0.8
		c-0.1-1.1-1.3-0.5-1.8-1c-9.2-3.8-18.6-1.2-28-1.1c-1.7,0-2.5,1.7-3.6,2.7c-5.7,5.3-10,5.5-16.7,0.8c-3-2.1-5.4,0-7.8,1.3
		c-9.9,4.6-17.8,11-20.8,22.1c-1,3.6-4,5.3-7,7.1c-5.1,3.2-10.4,6-15.4,9.3c-8.1,2.1-15.1,6.7-24.2,10.5
		c9.8-13.3,16.2-26.3,15.6-41.8c-1.4,4.6-2.8,9.3-4.3,13.9c-2.9,0-2-1.7-1.4-3.2c0.3-7.8,3.2-15.5,1-24.2
		c-2.8,12.5-3.7,25.1-11.7,35.3c3.9-14.2,7-28.5,6.2-43.4c-2.6,8.7-4.3,17.6-7.5,26.2c-4.3,11.7-11.2,21.7-17.7,32
		c-0.8,1.3-2,2.4-1.8,4.1c-4.6-1.1-7.6,4.4-12.7,2.7c17.9-18.4,29.1-39.7,30.2-65.6c-5.5,14.3-11.8,28.1-24,38
		c4-11.1,13.2-19.4,15.5-31.4c-5.4,10.1-13.9,17.7-19.9,27.3c-1-1.3-0.9-2.6-0.2-4c12.1-15.1,20.4-32.3,27.5-50.3
		c-8.1,11.5-16.2,22.9-24.3,34.4c-2.7,0.1-2.5-1.2-1.4-3c2.2-3.5,5.4-6.4,6.5-10.6c-3.2-2.5-3.7,2.7-6.5,2.1c4-16.4,13-29.6,25-40.9
		c-7.8-4.7-15.3-0.6-24.9,0.8c9.8-6.2,17.2-12.4,27.2-14.3c-15.7-2.6-27.8-2.4-50.1,15.3c3.9-5.3,7.8-10.5,13.1-14.7
		c-2.7-2-4.6,1.6-7.8-0.1c16.9-9.4,34.1-13.6,53-10.2c-7.2-11.9-29.5-11.3-53.9,1.1c3.9-9.9,11.4-13.7,36.4-18.4
		c-1.4-2.2-3.7-0.9-5.4-1.7c-5.3-0.6-11.3,0-12.6-7.4c8.3-1.2,16.7-0.5,25,0c2.5,0.5,5.1-0.4,6.6,0.5c-1.1-0.4-3.4-0.5-5-2.2
		c-1-0.2-1.9-0.3-2.9-0.5c0.7-3.5,3-1.7,4.8-1.4c4.9,0.8,9.7,1.6,16.2,2.6c-5.7-4.9-11.7-6.2-16.9-9.5c11.2-0.9,22,1.7,34.3,5
		c-4.4-4.8-8.1-7.6-12.8-9.1c-2.9-4.6,0.1-5.3,3.7-5.3c6.8,0.1,13.7-0.2,20.5,0.4c0.5,0.1,1.2,0.2,1.4,0.5c0.5,0.9,1.4,1.1,0.6,0.4
		c-2.5-2.3-5.9-2.8-8.9-4.2c-1.8-1.1-5.4-0.9-4.7-3.9c0.6-2.5,3.8-2.2,6-2.3c4.9-0.2,9.8,0.8,14.6,0.1c1-0.3,2.6,0.2,2.4-1.8
		c-1.3-2.3-2-4.8-2.8-7.2c5.6-2.6,10.9-0.3,15.4,2.3c3.5,2,7.2,3.5,11.4,6.4c-2.4-7.4-7.2-10.9-12.4-14c-0.7-0.8-0.4-1.8-0.3-2.7
		c-0.5-1.4-2.3-3.6,1.5-2.8c4.9,2.8,9.9,5.6,14.9,8.5c1.6-2.8-2.5-4.2-1.9-7.5c2.7,2,4.9,3.6,8.1,6.1c-1.1-6.6-7.6-9.2-8.8-16.5
		c6.8,6.2,12.3,11.2,17.8,16.3c0.4-0.2,0.7-0.5,1.1-0.7c-3.4-7.8-6.7-15.7-10.1-23.6c3.3-1,3.5,2.9,5.8,3.2
		c7.5,6.4,10.5,15.7,15.4,23.8c3-2.6,1.4-6.4,2.4-9.5c3.4,1,2.7,5.1,6.2,6.8c-2.5-7.5,9.3-7.9,5.7-16.2c3,1.8,1.9,5.4,5,5.7
		c1.1-0.8,1.7-2.7,3.6-1.7c1-2,2.1-4,3.1-6c2.3-1.2,2.1,3.6,4.6,1.9c2-4,9.9-2.4,8.1-9.7c2.9,2,0.4,6.7,3.1,6.6
		c2.8-0.2,7.4-0.3,7.8-5.3c1.4-4.3,0-8.7,0.8-13c0.6-3.1-1.1-7.5,3.7-9c0.3,0.4,0.4,0.9,0.2,1.4c1.6,6.4,0.4,13,0.7,19.5
		c0.2,4.2-1,9.1,6.2,7.8c1.1-0.2,2.1,2.5,4,1c1.2-4.9,3.7-5.7,7.4-2.1c1.5,1.5,2.4-0.1,3.2-0.8c2.4-2,4.7-4.1,7-6.2
		c2.2-0.9,4,4.7,6.3,0.4c2-1.7,4.1-3.5,6.1-5.2c1.5-0.4,2.2,0,1.7,1.6c-1,2.8-3.6,5.1-2.6,9c5-3.3,9.9-6.1,13.8-10.5
		c3.6-0.5,3.6-0.5,3.2,4.8c-0.3,2.3-1.4,5,2.9,4.4c0.6-0.4,1.3-0.5,2-0.4c1,0.3,2,0.7,3,1.1c7.1,0.4,9.9,7.3,15.5,10
		c1.5,0.7,0.4,2.9-0.3,4.3c-0.8,1.6-1.2,3,0.9,3.8c3.4,1.2,2.9,3.6,2.2,6.3c-1.2,4.5,1,6.1,5.4,5.9
		C752.8,222.8,760.2,221.6,767.4,219.5z"/>
	<path fill="#BFB0C8" d="M484.8,418.1c2.8,2.9-1.2,4.1-1.5,6.3c-3.7,2.6-6.4,6.7-12.8,7.8C476,427,481.5,423.6,484.8,418.1z"/>
	<path fill="#A297AD" d="M435.9,417.1c-0.3-8.5,2.2-13.6,7.7-17.5C441.3,404.8,439,410,435.9,417.1z"/>
	<path fill="#EADCEF" d="M487.3,430.7c2.3,2.7,4.3,5.1,0.9,7.9c-1.1,0.9-2.7,1.5-3.4,0.4C482.7,435.6,486.5,433.5,487.3,430.7z"/>
	<path fill="#8E7B8F" d="M462.6,354.9c0.3,1.1-0.2,2.5,1.4,3c-2,4.1-5.3,7-9.2,9.2C457.4,363,460,358.9,462.6,354.9z"/>
	<path fill="#8F7D95" d="M460.8,373.7c0.1,1.3,0.1,2.7,0.2,4c-1.3,3.5-4.1,5.4-7.6,6.9C455.9,381,458.3,377.4,460.8,373.7z"/>
	<path fill="#F4F9F8" d="M810,673.4c8-5.1,10-15,16.9-21.4c0.4,4-2.1,6.9-2.9,10.3c-5.2,10.2-14,18-18.7,28.5
		c-6.4,6.3-12,13.3-17.2,20.6c-3.2,2.2-6.4,4.3-8.6,7.6c-11.2,10.1-23,19.3-36.8,25.5c-2.2,1-1.1,3.3-2.2,4.7
		c-5.4-0.9-10.1,1.3-15.5,3.8c-0.4-5.2-0.6-9.7-1.1-14.3c-0.3-3.8,1.3-5.3,5-6.3c7.3-1.9,15.4-2.3,21-8.6
		C777.6,716,793.6,694.4,810,673.4z"/>
	<path fill="#DECDD9" d="M491.2,252.2c-1.6,0.5-3.2,0.9-4.8,1.4c-7.5-1.2-15.1-1.5-22.7-1c-16.4,1.1-29.4,7.7-37.3,22.7
		c3.2-11.6,10.8-19,22-23.1C462.6,249.4,476.9,248.2,491.2,252.2z"/>
	<path fill="#DCCFD8" d="M462.6,255.7c4.7,1.6,7,7.2,12.6,7.4c-10.7-0.5-20.8,1.5-29.4,8.6c3.3-6,5.2-7.3,15-10.6
		c-1.3-2.5-4.3,0.4-5.9-2.4C456.7,256.4,459.4,255.5,462.6,255.7z"/>
	<path fill="#1A0B23" d="M441.9,331.2c5.4,2.4,0.1,4.9,0,7.3c-0.2,3.2-2.3,3.5-4.9,2.2C435.5,335.9,438.3,333.3,441.9,331.2z"/>
	<path fill="#CBB8CA" d="M437.6,327.2c-2.3,4.7-4.7,9.4-7.3,14.7C429.7,335.1,430.8,332.6,437.6,327.2z"/>
	<path fill="#8F878A" d="M489.2,254.1c4.1,0.3,8,1.2,10.5,5.9c-4-1.4-8-2.9-12-4.3C488.2,255.2,488.7,254.6,489.2,254.1z"/>
	<path fill="#A38DA4" d="M464.4,321.1c-3,3.9-5.5,8.2-10.7,9.9C456.8,327.2,459.4,322.9,464.4,321.1z"/>
	<path fill="#A08C9F" d="M441.9,331.2c-2.7,2.6-4.3,5.7-4.9,9.4c-0.7,0.2-1.4,0.5-2.1,0.7c0.2-5.1,2.5-9.4,6-12.7
		C442.1,327.6,441.7,330.2,441.9,331.2z"/>
	<path fill="#666970" d="M700.3,806c-3.1-6.3-2.9-12.9-1.4-19.6C702.1,792.7,700.9,799.4,700.3,806z"/>
	<path fill="#071622" d="M703.9,779.2c-1.2,12,1.4,24.1-1.3,36C703.5,803.2,701,791.1,703.9,779.2z"/>
	<path fill="#EBD0DD" d="M549.6,225.6c1.2,2.5-0.6,2.6-2.2,2.8c-11-5.6-22.4-10.4-34.3-13.8l-0.7-0.3c0,0-0.7,0.1-0.7,0.1
		c-1.7-3.3,0.8-2.8,2.5-2.6c9.9,1.1,19.8,2.3,28.5,7.7C545.9,220.5,546.5,224.4,549.6,225.6z"/>
	<path fill="#F0D0DB" d="M549.4,194c2.3,1.5,4.7,2.9,6.9,4.6c1.7,1.3,2.9,3.1-0.5,3.9c-7.7-7.3-18.1-8.5-27.6-11.5
		c-2.9-0.9-6-1.5-11-2.7C530,186.7,539.6,190.9,549.4,194z"/>
	<path fill="#D5ACB8" d="M558.9,209.8c2.6,0.7,0.8,1.8,0.3,2.7c-3-0.8,0.9,5.1-2.7,2.9c-6.9-4.1-14.6-6.1-21.8-9.5
		C543.2,204.5,551,207.5,558.9,209.8z"/>
	<path fill="#E5B5C2" d="M558.8,167.5c0.7,1.8,3.4,2.2,3.3,4.6c-7.8-3.6-15.1-8.2-24.1-8.2c-1.2,0-2.8-0.2-2.5-2.1
		c0.3-1.4,1.5-2.2,2.9-2.1c4.3,0.3,8.5,0.4,12,3.8C552.5,165.6,555.9,166.3,558.8,167.5z"/>
	<path fill="#AF818F" d="M505.2,199c-1.5-0.1-3.1-0.3-4.6-0.4c-2.8-2.2-6.6-0.6-9.6-2.3c10.8-0.9,21.5-1.7,31.2,6.3
		C515.3,205,511.1,197.9,505.2,199z"/>
	<path fill="#684A54" d="M549.6,225.6c-3.5-0.6-6.1-2.3-6.9-6c0.7-0.6,1.4-1.2,2.1-1.8C548.1,219.3,548.1,222.9,549.6,225.6z"/>
	<path fill="#FAF7FB" d="M638.3,416.4c-2.1,10.9-6.8,20.2-16.2,26.7c-11.1,4.8-21.9,10.8-33.5,14.2c-23.7,6.9-33.4-1.2-45.2-22.5
		c-5.4-9.7-9.7-20.6-4.8-32.3c2.1-6.3,6.4-10.5,12.2-13.5c12.4-6.2,25.4-10.6,38.8-14.1c7.7-3.8,15.9-5.1,24.3-5c3,0,5.7,1.2,7,4.2
		c1.2,2.8-1.4,3.4-3,4.4c3.3,1.6,6.4,3.5,8.5,6.6c1.3,2,2.5,4.4,1,6.6c-1.8,2.7-4.3,1.1-6.3,0.2c-5.8-2.6-11.6-5-18-4.9
		c-2.2,0-5.6-1.5-6,2.8c-8.4,5.2-16.5,10.7-24.3,16.7c8.3-6.1,17.3-11.2,26.6-15.6c8.6-1.5,16.6,0.7,24.1,4.7
		c2.1,1.1,4.4,2.5,3.6,5.3c-0.8,2.6-3.5,1.8-5.4,1.8c-8.1-0.3-16.2,0-24,2.7c-2.7,1-5.7,1.5-6.8,4.7c-7.4,4.9-14.9,9.7-22.1,14.8
		c-4.3,3-9.5,0-14.1,2.2c-1.3,0.6-1.8-2.9-1.1-4.5c5.4-11.6,11-23.1,20.6-29.8c-6.2,2.7-14,10.4-17.3,17.8c-0.9,2-0.8,5.4-3.7,5.4
		c-3,0-3.3-3.2-3.8-5.4c-0.1,4.9,1.6,10.2-1.2,15.1c-4.5,0.3-3.8-3.8-5-5.6c0.6,2.6,1.4,5.6,5,6.7c2.9,3.1,3.7,7.5,6.7,10.5
		c9.4,3.1,19.1,1.8,23.9,2.2c-4.9-0.2-14.7,0.4-24.2-2.4c-2.2-5.3,1.8-7.1,5.4-8.3c5.6-2,11.2-4.3,17.2-5.1c3.5-0.5,6.8-1.5,9.3-3.8
		c4.7-4.4,10-4.9,15.9-4.3c8.4,0.9,12.8-6.9,19.8-9.1c2.8-0.9,5-3.1,6.9,0.9c0.6,7.1-2.5,11.8-8.8,15.2c-5.4,3-10.7,6.4-13.4,10.1
		c2.2-3.7,8-5.4,12.9-8.5c0.9-0.6,2.1-0.6,2.7,0.6c1,2.4-0.4,3.9-2.3,5.8c7.1-4.5,11.8-10.1,13.2-18.1c0.9-2.6,1-5.4,2.8-7.6
		c0.7-0.5,1.5-0.5,2.2,0.1C638.1,409,638.2,412.7,638.3,416.4z"/>
	<path fill="#380C3E" d="M590.5,376.6c-8.7,2.8-17.4,5.5-26,8.4c-10.2,3.5-19.4,8.5-25.9,17.5c-1-1.9-3.8-1.1-3.9-0.9
		c-1.6,4.8-5.2,1.3-7.8,2c-1.8-1-4.3,0.1-5.9-1.8c0.9-2.9,0.8-5-3.1-4.4c2.9-5.4,8.3-7.8,13.3-10.1c4.8-2.2,7.2-5.5,8.6-10.1
		c3.2-10.3,10.5-16.3,20.6-19.2c1.5-0.5,1.9,0.3,2.1,1.5c-2.2,2.2-5,3.3-7.6,5c-0.9,0.5,0.9,1,0.1,0.3c-0.1-0.1,0-0.3,0.4-0.5
		c3-1.3,5.4-3.9,8.9-3.9c2.4,0.8,4.7,1.8,7,2.8c2.5,1,2.5,2.8,1.1,4.8c-2,1.9-4.7,2.1-6.8,3.1c3.2-0.6,6.5-2.6,10.2-2.2
		c3.9,0.4,7.4,2.4,11.2,3.3C589.2,372.5,592.1,373.1,590.5,376.6z"/>
	<path fill="#F2EDF5" d="M515.4,405.1c0.1,2.4,0.3,4.6,0.4,6.8c-2.7,1.9-1.8-3-4.1-1.7c-0.6,3.3-0.6,6.6,0.1,9.9
		c0.4,2.1,4,4.7-0.9,5.9c-3.3,0.8-6.4,3.1-9.3-1.8c-4.8-8.2-3.9-12.5,4.8-16.1C509.2,407,511.8,405.1,515.4,405.1z"/>
	<path fill="#D8CADA" d="M503.5,376.8c0.5,1.1,0.9,2.2,1.4,3.2c-1.1,4.6-3.6,8.6-7.5,11.9C499.4,386.8,501.5,381.8,503.5,376.8z"/>
	<path fill="#E2C8E7" d="M521,401.9c2.4-0.9,5-2.4,5.9,1.8c-2.1,1.9-4.6,2.7-6.9,1.4C518.6,404.2,520.5,402.9,521,401.9z"/>
	<path fill="#500D1C" d="M513,214.6c13.4-0.3,24.2,5.9,34.3,13.8c-7.3,2.3-14.8-1.4-22.6,1c2,1.3,4.5,0.5,5.7,2.5
		c1.5,3.4,5.5,2.8,7.8,4.7c-7.3,2.9-14.9,1.2-22.4,1.3c-2.6,0-5-0.7-3.9,3.3c-4.1-3.3-5.4-6.8-0.8-10.7c1.6-1.4,1.8-2.3,0-3.5
		c-5.6-1.7-11.4-0.6-17-1.5c1.4-5.4,4.5-8.2,10.4-7.9C507.6,217.7,510.6,216.6,513,214.6z"/>
	<path fill="#B18899" d="M479.3,210.9c4.6-4,9.8-5.1,17.3-3.2C489.9,210.8,484.3,208.9,479.3,210.9z"/>
	<path fill="#BEA8AF" d="M494.1,225.5c5.8-1.2,11.5-1.5,17,1.5C505.4,226.9,499.6,228.6,494.1,225.5z"/>
	<path fill="#F9F9F9" d="M748.1,402c-6.1,1.7-12.2,3.2-18.2,5.1c-6.5,2.1-13,1.2-19.5,0.1c-18.7-10.2-26.5-28.1-32.4-46.9
		c-2.3-7.2,1.7-13.2,7.6-17.7c4.5-3.4,9.1-6.7,13.7-10c7.3-5.6,16.2-7,24.8-9.3c5.5,4.9,12.2,0.8,18.3,2.2
		c12.2,2.7,12.9,2.5,14.6,14.2c1.5,1,2.4,2.6,3.8,3.7c1.3,1,2.9,1.8,3,3.8c-0.7,1-1.5,2-2.2,3c0.1,0.9-0.1,1.7-0.7,2.4
		c-3.8,3.2-8.2,2.8-12.7,2c-7.1-1.3-14.1-1.7-20.8,1.7c-6.2,3.4-12.2,7-17.8,11.4c-1.5,1.2-3.7,2.7-5.6,0.9
		c-1.4-1.4-0.6-3.4-0.2-5.2c3-12.4,14.7-21.2,30.5-22.9c2.9-0.3,5.7-0.2,8.6-0.3c1.8-0.1,3.6-0.4,6.4-3.3
		c-8.1,2.2-14.9-0.7-21.2,3.1c-4.4,1.6-9.1,2.2-13.6,4c-8.7,3.5-13.9,9.9-17.5,18.2c-1.1,2.6-1.6,7.4-5.4,6.5
		c-3.6-0.9-3.4-5.4-3.6-8.8c-0.1-2.1-0.1-4.2,0.7-7.2c-4.6,9.2-3.6,17,2.3,25.1c1.3-5.2,3.7-5.4,7.4-2.7c2,1.4,6.8-4.2,7.1,2.7
		c0.1,2.6,2,2.7,4,2c3.1-1,6.2-1.9,5-6.3c3.5-4.4,8.9-6,13.4-5.2c12.4,2.3,23.2-1,33.5-7.2c1.4-0.8,3-0.7,4.5-1.2
		c7.1,11.3,5.1,21.2-5.5,28c-2.4,1.5-4.8,3.2-7.4,4.4C749,394.3,745.9,396.7,748.1,402z"/>
	<path fill="#A24149" d="M724.7,325c-8.4,2.6-16.9,5.1-25.3,7.7c-5-1.4-2.7-6.7-5-9.5c-1.8-3.2,2.5-4.9,1.4-7.4
		c-0.8,1.3-0.3,4.6-3.6,4.6c-9.5,2.3-2.9-5.7-5.1-8c3.3-2.2,6.5-4.5,9.9-6.4c5-2.8,9.1-7.8,16.2-4.9c1.7,0.7,4.9-1.3,7.1-2.5
		c9.9-5.7,19.6-4.7,27.4,3.2c1.8,1.8,3.7,0.5,5.4,1.1c1.1,0.2,2.3,0.5,3.4,0.7c-0.6,0.7-1.2,1.5-1.8,2.2c-7.4,6-17.2,5.2-23.9,9
		c5-0.9,11.1-4.5,17.9-2.9c3,3.1-1.1,6.7,0.9,10.4c0.9,1.7-3.7,3-6.4,2.5C737,323.7,730.9,324.5,724.7,325z"/>
	<path fill="#D17F50" d="M835,320c9.5,0,4.6,5.3,3.5,9.3c-1.1,4.4-5.3,4.4-8.4,6c-2.1,1-5.6-0.2-5.8,3.7c1.2,2.7,2.5,5.4,0.2,8.2
		c-2.5,10.4-3.4,20.8-1.2,31.3c0.8,3.7,0.8,7.5,1.3,12.4c-9.3-8.1-14.6-18.4-24.6-24c2.4-1.7,4.2,0.9,6.4,0c1.2-2.1-1.3-3.8-0.9-5.8
		c-2.7-2.5-0.4-6.9-3.5-9.2c-3.2-5.5-0.9-12.9-6.2-17.6c-2.5-2.7-1.1-5.9-1.3-8.9c4-1,6.1,8.8,11,1.9c-1-2.6-6.7-4-4.2-6.8
		c2.8-3.2,7,0.4,10.5,1.4c5,2.6,10,4.2,15.3,0.7C829.7,321.7,831.6,318.5,835,320z"/>
	<path fill="#B1564E" d="M724.7,325c5.5-2.4,11-4.3,17.1-2.6c2.5,0.7,5.9,2.1,6.8-0.9c1.2-3.7-4.1-2-5.2-4.7c-0.6-3.7,7.4,1.5,5-4.3
		c5.5-5.6,12.1-4.9,18.9-3.4c-1.6,3.6,5.3,5.6,1.6,9.6c-2.6,0.7-4.1-2-6.5-2c-0.7-0.2-1.5-0.4-2.2-0.6c-0.7-0.1-1.4-0.4-2.2-0.1
		c0.5,1.1,1.7,0.5,2.5,0.8c7.4,2.1,12.4,6.4,13.4,14.4c-4.3,2.1-6.6,5.4-6.5,10.2c0,2.7,0.1,5.4-3.6,5.8c-1.4-0.6-2.8-1.3-4.2-1.9
		c-1.9-4,1.3-7.4,1.1-11c-1.2,2.1-1.2,5.4-4.5,6.4c-0.9,0.4-2,1.3-2.8,1.1c-1.9-0.5-0.2-1.5,0-2.2c2-7.2,0.4-10.2-6.9-11.2
		c-5.4-0.8-10.9-2-16.3-0.5C727.2,328.6,726.3,326.4,724.7,325z"/>
	<path fill="#AC5555" d="M761,351.6c0-0.5,0.3-1,0.7-1.4c2.9,0.6,4.6,2,3.2,5.2c-0.8,1.8-0.4,3.4,1.4,4.5
		c-10.9,7.3-21.6,14-36.1,10.1c-4.3-1.2-10.2,1-14.7,4.1c-0.6-0.6-1-1.4-1-2.3c5.7-9.9,15-13.9,25.7-15.6c2.8-0.5,5.7-0.1,8.6-0.3
		C752.8,354.3,757.6,354.9,761,351.6z"/>
	<path fill="#FBE7D0" d="M808.3,295.2c9.6,2.7,18.9,1.4,28.1-2.1c1.9-0.7,4-4.2,6.5-0.8c-0.1,3.1-1.3,4.4-4.3,2.6
		c-10,5.7-20.5,8-32,5.2c-2.9-0.7-5.7-1.4-8-3.5c-2.1,6.2,6.8,4.7,5.2,9.8c-7.3-2.7-11.4-8.5-15.5-15.8
		C795.2,292.7,801.4,295.8,808.3,295.2z"/>
	<path fill="#F0E1CE" d="M835,320c-3,0.2-4,4.4-7.5,3.6c-5.2,2.5-10.5,1.2-15.8,0.2c-3.4-1.1-6.8-2.2-11-3.5c1.9,2.9,3.3,5,4.6,7
		c-6.7-3.5-10.6-8.8-10.9-17.3c4.5,1.9,7.9,5.3,12.5,5.6c5.5,5.5,17.9,6.6,25,1.7c1.6-1.1,3.1-1.9,4.8-2.4c1.1,1.1,1,2.2,0.1,3.4
		C836.2,318.8,835.6,319.4,835,320z"/>
	<path fill="#F9DCC6" d="M762.8,315.3c3-0.7,4,2.3,6.1,3.4c3.3,2.3,5.7,5.3,7.2,9.1c7.1,17.3,7.7,34.8,1.7,52.5c2.3-14,2.2-28-1-42
		c-0.6-2.6-0.9-5.1-2.9-7.1c-3.7-5.4-6.4-12-14.3-12.9C758.1,314.7,759.9,314.4,762.8,315.3z"/>
	<path fill="#F8E6DC" d="M767.3,309.1c-6.3,1.1-12.6,2.3-18.9,3.4c-8.5,0.8-16.6,3.3-24.9,5.3c9.4-6.7,20.3-9.6,31.2-12.1
		C758.8,307.1,764.5,303,767.3,309.1z"/>
	<path fill="#AD8A88" d="M768.5,300.8c0.1-7.2-6.1-10.3-10.1-14.7c-1.8-2-5.2-2.6-5.3-6.1c1.6,0.7,3.3,1.4,4.9,2.1
		c2.9-0.6,3.7,1.5,4.6,3.5c2.6,2.6,5.1,5.3,7.7,7.9c0.9,0.1,1.4,0.7,1.5,1.6c0,0.6,0.1,1.1,0.1,1.7
		C770,297.4,771.2,300.7,768.5,300.8z"/>
	<path fill="#E8BE96" d="M788.9,322.7c-3.5-6.3-3-13.2-7.3-18.2C787.3,307.3,789.1,311.8,788.9,322.7z"/>
	<path fill="#EEE1CD" d="M794.4,336.3c-0.5,5.1,1.3,10.5-1.4,15.4C793,346.6,792,341.3,794.4,336.3z"/>
	<path fill="#F0B5C5" d="M565.8,183.5c6.2,1.6,10.5,5.5,13.2,11.4C574.2,191.6,570.5,187,565.8,183.5z"/>
	<path fill="#DC9E6A" d="M856.6,430c-2.8-3.2-4.8-6.2-8.2-8c-3.9-2.1-3.8-2.3-4.3,3c-13.8-12.3-4.7-30-11.6-44.1
		c14.6,6.5,14,6.5,13.2,20.1c-0.5,8.1,4.2,15.2,8.2,22.1C855,425,857.7,426.1,856.6,430z"/>
	<path fill="#F7F2DB" d="M821.4,338.8c-0.6-3,0.8-4.1,3.7-4.3c5-0.3,9.3-2.5,13.4-5.3c2.1,1,3.1,2.8,3,5.1
		c-0.5,11.4,1.8,22.3,4.8,33.2c-0.1,2.1-0.1,4.3-0.2,6.4c-5.8,4.2-1.2-3.7-3.8-3.2c-4.4-2.5-5.5-6.8-5.8-11.4
		C835.7,349.4,830.8,342.5,821.4,338.8z"/>
	<path fill="#C79671" d="M821.4,338.8c8,0.3,16.6,8.9,17,17.8c0.2,5.1,1.3,9.7,4,14c-3.7-1.4-6.7-0.7-8.6,3.1
		c-1.4,0.3-2.3,0.2-1.5-1.6c0.6-7.3,0-14.4-2-21.5c-0.8-3-2.1-5.3-5.8-3.6C824.7,343.9,823.6,341.1,821.4,338.8z"/>
	<path fill="#FEFEFE" d="M829,413.3c-1-1.6-2.1-3.2-3.1-4.8c0.5-2.1-3.7-5.2,2.1-6.3c2.3-0.4,0.8-5,0.4-7.8
		c-0.3-2.3,0.7-4.1,2.5-5.4c0.4-0.3,1.8-0.2,2,0.2c1.2,1.9,1.4,4.4,0.1,5.9c-2.9,3.5-1.6,6.2,0,9.9
		C834.4,408.1,835.8,413.2,829,413.3z"/>
	<path fill="#C9B9A0" d="M848.1,442.9c-1.4,0.8-1.6,2.1-1.7,3.5c-2.1-3.8-3.9-7.8-5.1-12c-1.1-3.9-2.9-7.6-3.8-11.7
		C842.4,428.7,844.9,436,848.1,442.9z"/>
	<path fill="#FEFEFE" d="M832.2,372.2c0.5,0.5,1,1.1,1.5,1.6c0.3,4-3,6-4.8,9.3C824.8,377.3,831,375.6,832.2,372.2z"/>
	<path fill="#FEFEFE" d="M824.7,353.9c2.7,1.9,5.9,2.1,5.4,5.6c-0.2,1.6-1.8,1.8-3.1,1.5C823.2,360.1,824.4,357.3,824.7,353.9z"/>
	<path fill="#D29588" d="M801.8,351.9c5.1,1.6,3,5.9,3.5,9.2C801,359.3,802.7,355.1,801.8,351.9z"/>
	<path fill="#6A756C" d="M801.5,670.4c-1.5,0.5-2.9,0.9-4.4,1.4c3.6-10,12.3-16.8,17.1-26C812.4,655.2,805.8,662.2,801.5,670.4z"/>
	<path fill="#FEFEFE" d="M771.9,684.7c3.1-0.5,3.3,4.1,6.4,3.5c-0.1,2.8-2.3,3.6-4.3,3.7c-3,0.1-3.6-2.7-4.3-4.9
		C769.2,685.3,770.5,684.7,771.9,684.7z"/>
	<path fill="#EFD2D1" d="M633.2,197.6c-0.1,1.4,0.3,3.7-1.6,3.4c-2.8-0.3-0.9-4.1-2.9-5.3c2.5-12.1,1.7-23.3-8.7-32
		c-1.6-1.3-1-4-0.9-3.9c1.9,2,4.1-3.6,6,0.3c1.5,3,3.4,5.8,5.1,8.7c2.4,8.5,4.2,16.9,1.7,25.7C631.5,195.7,631.5,197.1,633.2,197.6z
		"/>
	<path fill="#F1D4D3" d="M625.5,201.6c-1.2,0.6-2.4,1.2-3.6,1.7c0.3-12.2-3.9-23.2-8.9-34C621.9,178.3,624.2,189.8,625.5,201.6z"/>
	<path fill="#A15A5C" d="M639.6,151.4c0.4,1.2,0.7,2.4,1.1,3.6c-0.3,1-0.4,2.1-1.3,2.8l-0.8,0c0,0-0.8-0.1-0.8-0.1
		c-2.7-4.5-6.7-7.8-10.2-11.8C631.6,147.9,637.2,146,639.6,151.4z"/>
	<path fill="#BF757C" d="M608.7,193.5c-1.3-2.6-2.6-5.2-4.6-9.2C608.7,186.9,609.8,189.7,608.7,193.5z"/>
	<path fill="#F9F8F8" d="M680.3,560.2c-4.1-0.5-9-5.3-11.6,2.5c-0.4,1.2-2.6-0.8-4-1c-2.1-1.8-2.4-4-1.5-6.4
		c4.5-1.5,10.1,2.2,13.7-3.2c-0.1-6.6,5.4-6.6,9.7-8.1c6.6,0,12.9-2.3,19.6-1.6c2.4,0.3,3.7-1.6,5.3-2.9c4.8-3.8,10-6.8,16.5-6.2
		c7-3.2,14.5-4.4,22.1-4.8c0.3,5-0.6,8.1-6.6,10.3c-5.2,1.9-9.8,6.5-15.2,9c-1.3,1.9-1.9,4.2-3.7,5.7c-2,0.6-4,1.2-6.1,1.8
		c-5.1-0.8-9,2-13.1,4.3c-0.9,0.2-1.8,0.3-2.7,0.5C695.2,558.8,687.8,563.5,680.3,560.2z"/>
	<path fill="#F2EAEC" d="M723.2,520.5c3.8,4.3,10,0.4,13.7,4c-3,0.7-6,1.5-9,2.2c-11.3,6.7-21.8,15.2-36.1,14.2
		c-4.8,0.3-9.1,5.1-14.2,1.3c4.6-4.8,13.4-7,10-15.2c-0.4,2.4,5.8,2.8,3.1,8.7c14-10.5,9-21.6,4.1-33.8c4.7,4,6,8.2,7.4,12.9
		c1.9-6.5-2.5-10.6-4.5-15.4c2.1-1.4,4.1-2.4,6.6-2.4c1.8,3.5,4.5,6.6,4.6,10.8c-1.6,3.6-1.9,7.4-2.7,11.2c-0.1,0.3-0.1,0.5-0.2,0.8
		c-0.5,4.2-6.5,9.8-0.5,12c3.8,1.4,5.5-6.1,7.6-11.3c0.4,4.6,2,5.9,5.2,3.4C719.7,522.6,719.8,519.1,723.2,520.5z"/>
	<path fill="#222631" d="M677.5,542.3c5,0.5,9.1-3.2,14.1-3.1c1.4,4.3-2.5,4.8-4.7,6.5c-4.1,0.9-7.8,2.3-9.9,6.3
		C673.3,548.5,675.1,545.4,677.5,542.3z"/>
	<path fill="#7D7983" d="M666,544.2c-1.3-2.5-1.6-5.2-1.4-7.9c0.5-1.1,1.1-2.3,1.6-3.4c1.3,4.4,7,7.1,4.8,12.8
		C670.1,542.9,667.7,544.7,666,544.2z"/>
	<path fill="#8B7887" d="M677.8,521.4c-0.5-6.9-0.7-13,2.9-19.5C681.7,509.5,680.6,517.1,677.8,521.4z"/>
	<path fill="#EEE4EE" d="M663.2,520.3c0-1.5,0-3,0.1-4.5c0.3-0.7,1-1.8,0.8-2c-4.7-3.8-0.7-6.3,1.4-9
		C665.3,510,669.4,515.9,663.2,520.3z"/>
	<path fill="#ADA3AB" d="M677,538.7c-4.4-5.8-1.3-8.9,1.2-12.2C677.9,530.1,677.5,533.6,677,538.7z"/>
	<path fill="#EFE3E0" d="M667.7,196.9c-1.7,3-1.7,3-3.5,1.2c-0.4-0.4-0.7-1.2-0.9-1.2c-11.7,1.8-5.5-7.1-6.2-11.2
		c-0.9-5.5-0.2-11.4-0.2-17.1c3.1,8.1,1.6,16.4,1.6,26.9c7.2-12.6,6-24.5,7-36.2c0.9,3.7,1.8,7.3,2.7,11
		C669.5,179.2,666.1,188,667.7,196.9z"/>
	<path fill="#EFE3E0" d="M656.7,167.2c-4.8,6.7-0.8,15.1-4.4,22c0.5-10.2,0.2-20.4-3.9-30.8c3.7,1.9,3,5.1,4.7,8
		c1.6-6.3-2.4-10.7-3-15.8C654.4,154.6,655.5,157.3,656.7,167.2z"/>
	<path fill="#DEA7A7" d="M639.4,157.7c0.4-0.9,0.9-1.8,1.3-2.8c4.6,7,5.7,14.9,5.3,23.3C643.9,171.4,641.6,164.6,639.4,157.7z"/>
	<path fill="#D88C85" d="M680.8,159.3c-0.9,1.2-1.8,2.4-2.7,3.5c-0.3-1.2-0.7-2.4-1-3.6c1.2-3.6-1.6-7.8,1.8-11
		c0.6,1,1.2,2.1,1.7,3.1C682.2,154,682.9,156.6,680.8,159.3z"/>
	<path fill="#BE7660" d="M759.9,257c-2-2.1-4-4.1-5.9-6.2c5.9,0.8,10.1,5,15.2,7.6c10.6,5.4,18.6,15.3,30.8,17.9
		c3.8,0.8,7.3,2.4,9.9,5.5c-15.5,4-28.2-3-39.1-12.2C767,266.4,763.7,261.1,759.9,257z"/>
	<path fill="#BA916F" d="M842.1,262.4c-11,13.3-35.5,12.8-49.5,5.8C810.7,270.9,826.7,269.4,842.1,262.4z"/>
	<path fill="#A97368" d="M754.8,246c-0.2-0.5-0.1-1,0-1.5c2.4-2.3,5.2-1.5,7.2,0.1c6.9,5.1,14.7,8,22.8,10.2c1.2,0.3,1.7,1,1.5,2.2
		c-3.1,0.2-3.3,2.3-3.2,4.7c-7.6-4.3-15.3-8.6-22.9-12.9C758.5,247.8,757.1,246,754.8,246z"/>
	<path fill="#FEFEFE" d="M762.6,285.6c-1.5-1.2-3.1-2.3-4.6-3.5c1.3-1.7,1.7-5.4,4.6-3.9C766.1,280,763.5,283.1,762.6,285.6z"/>
	<path fill="#FEFEFE" d="M771.8,295.1c-0.5-0.5-1-1.1-1.5-1.6c2.3-0.5-0.8-4.3,2.1-3.8c1.7,0.3,4,2,3.7,4.3
		C775.8,296.7,773.5,295.3,771.8,295.1z"/>
	<path fill="#F5DDB9" d="M836.9,318.2c0-1.1-0.1-2.2-0.1-3.4c0-5.3-5.1-0.2-6.3-3.6c5.2-2.3,11.2-2.9,17.8-7.2
		C845.2,311,840.2,314,836.9,318.2z"/>
	<path fill="#F6D5B3" d="M838.5,294.9c1.9-0.1,3.4-0.9,4.3-2.6c1.9-1,3.9-2.1,5.8-3.1c-4.8,6.3-9.2,13-18.1,13.6
		c-0.3-2.2,1.5-1.3,2.3-1.9c1.2-0.9,2.7-1.6,3.7-2.6C837.5,297.4,837.9,296.1,838.5,294.9z"/>
	<path fill="#70707F" d="M652.2,526.9c-0.8,5.9-1.7,11.8-2.5,17.7C647,538.2,648.9,532.4,652.2,526.9z"/>
	<path fill="#7F818B" d="M656,553.2c-3.7-4.6-1.8-8.1,1.7-11.2C657.2,545.8,656.6,549.5,656,553.2z"/>
	<path fill="#B7BCC9" d="M639.5,558.7c-4.6-5.5-1.3-8.6,0-11.9C639.5,550.1,639.5,553.5,639.5,558.7z"/>
	<path fill="#581847" d="M571.5,367.4c0.6-1.6,1.1-3.3-1.5-3c-3.1,0.4-4.7-1.7-6.6-3.3c-0.6-0.5-1.5-0.8-1.4-1.8
		c-0.6-0.4-1.1-0.9-1.7-1.3c2.3-5.5,7.7-2.5,12.6-5.1c-1,2.8-1.6,4.5-2.4,6.7c5.1-1.9,12,1.7,14.3-6.2c0.4-1.3,1.2-1.5,2.3-1.4
		c10.5,0.7,21.3-3.4,31.6,1.4c0.7,2.7-1.4,2.6-3,3.1c-1.8-0.5-3.9-3.1-5.3-0.1c-1.2,2.7,2,2.7,3.4,3.8c4.4,3.3,9.8,1,14.5,2.8
		c2.5,3.4-2.4,4.5-2.6,4.6c-7.4,2.8-3.8,6-0.6,9.3c6.9,1.2,8.5,7,10.3,12.2c1.9,5.2,2.3,10.7,1,16.2c-0.4,2.7-0.2,5.5-1.9,7.8
		c-3.6,0.2-5.2-2.3-6.8-4.9c-0.6-0.7-1.2-1.5-1.8-2.2c-2.5,5.8-10.4,3.6-13.3,9.2c-2,3.7-5.9,3.4-9.6,2.5c-1.5-7.4-8.9-4.9-13-7.8
		c-1.7-1.1-5.1-1.6-0.4-3.7c10.8-4.8,22-6.7,33.7-5.2c1.1,0.1,2.4,1.4,3.7-1.1c-9.1-4.6-18-9.6-28.8-7.1c-1.1-0.8-2.4-1.5-1.6-3.2
		c0.1-2.3-2.9-0.8-3.2-2.7c9.2-3.5,17-2.3,33.3,5.3c-1.1-9.7-9.7-11.3-15.6-15c1-2.2,2.5-2.2,3.6-1.7c2.1,1,4.7,3.1,5.3-0.6
		c0.5-2.8-3.2-3.2-5.4-3.2c-8.4,0-16.7,0.9-24.4,4.8c-4.5-4.2-10.7-3.9-15.9-6C574.3,368.8,572.5,368.5,571.5,367.4z"/>
	<path fill="#E3AED1" d="M636.5,405.4c-0.6-10.7-0.8-21.6-11.4-28.4c1.7-3.3,1.7-3.2,3.5-1.6c8.9,8.1,10,18.7,9.5,29.8
		C637.6,405.3,637,405.4,636.5,405.4z"/>
	<path fill="#F8D8EA" d="M660.7,359.1c0.1-2.5-4.7-5.3,0.2-7.7c0.9-0.4,1.5-1.3,2.2,0.3C664.6,354.7,663.2,356.9,660.7,359.1z"/>
	<path fill="#EBBFC2" d="M692.2,320.3c3-2.4,2.3-7.5,7.2-9.2c-1.8,4.3-3.4,8.2-5,12c-1.5,1.1-1.6,3.8-4.2,3.8
		C689.2,324,691.9,322.6,692.2,320.3z"/>
	<path fill="#F7F0E9" d="M767.4,219.5c-2.6,6.7-8.7,3.3-13.2,4.2c-5.5,1.2-11.4-0.3-18.4,1.8c4.7-3.9-2.2-9,4.4-11.5
		c-4.1-1.9-10.8-1.6-4.8-7.9c1.7-1.8,1.3-2.4-1.2-3.7c-2.6-1.3-7.1-0.4-7.2-6.1c0-3.6-5.4,1-7.1-2.2c1.2-4.9,6.8-5.7,8.9-9.7
		c-0.1-2.9-0.2-5.8,3.7-6.2c5.5-3.2,11.2-4.9,17.8-3.1c-9.6,1.7-14.2,9-18.9,16.1c5.6-2.9,10.3-7.5,16.7-8.6
		c3.8-2.1,7.6-1.9,11.4-0.2c0.9,0.1,1.9,0.2,2.8,0.4c4.3,6.8,12.8,7.6,18.4,12.6c-2.8-0.1-5.6-0.1-8.4-0.2
		c-10.2-1.9-20.2-0.8-30.1,1.6c7.1-1.4,14.1-4.3,21.3,0.3c5.3,1.5,10.1,4.1,14,8.1c-1.7,1.5-3.8,1.9-5.9,1.4
		c-10.3-2.4-20.3,0.3-27.3,0.9c5.7-1.4,14.7-1.7,23.6-1.8c2.1,1.8,0.7,2.5-1,2.9c-1.5,0.3-3.1-0.1-4.6,0.6c-0.5,0.6-3.5,1.2-0.8,1.7
		c4.3,0.8,8.7,1.3,13,2.8c-11.2,0.7-22.7,0.4-32.6,7.2C750.9,223,758.9,216.9,767.4,219.5z"/>
	<path fill="#DF9E8E" d="M699.6,168.8c7.3-7.6,15-14.2,26.6-12.6c0.2,0.8,1.3,2.5,0.1,2.4c-9.1-1.2-15.4,3.8-21.8,8.9
		C703.1,168.5,701.9,171.4,699.6,168.8z"/>
	<path fill="#F3E0D4" d="M713.8,187.8c-1.6-1.2,0.4-4.8-3.2-4.8c1.2-4.3,4.3-7.2,7.5-10c0.2,0.2,0.4,0.4,0.6,0.7
		c0.7,1.7,6.1,1.8,1.2,5.4C717.2,181,715.8,184.8,713.8,187.8z"/>
	<path fill="#E5C9C0" d="M732.7,178.3c-2.8,1.6-2.1,3.9-1.1,6.2c-4.8,1.8-7.6,6.8-12.9,7.9c-0.7-0.1-1.4-0.1-2-0.2
		c2.9-3.9,6.8-7.1,8.6-12C726.5,177.1,729.3,175.5,732.7,178.3z"/>
	<path fill="#F4DCD2" d="M691.6,188.1c-2.6,7.7-4.3,1.3-6.3-0.4c2.4-4.6,5.2-8.9,6.4-14.1c0.5-0.6,0.9-1.4,1.6-1.6
		c2.9-0.9,1.1,1.5,1,1.9c-1.6,4.2-3.6,8.4-5.2,12.6C687.4,190.8,690.6,187.9,691.6,188.1z"/>
	<path fill="#F4DCD2" d="M699.5,184.5c-0.6-0.5-1.2-1.1-1.7-1.6c2.7-8,9.8-11,16.3-14.8C708.2,172.6,703.2,178,699.5,184.5z"/>
	<path fill="#EFCAC2" d="M718.1,173c2.6-4.9,6.9-7.3,12.1-8.4c-3.3,3.8-6.4,7.6-11.5,9.1C718.4,173.5,718.2,173.3,718.1,173z"/>
	<path fill="#DE9889" d="M759.7,182.7c-3.8,0.1-7.6,0.1-11.4,0.2C752,177.7,755.8,177.9,759.7,182.7z"/>
	<path fill="#F2B8B1" d="M685.2,156.1c1.3-2.2,2.6-4.3,4.6-7.6c0.2,7.1-3.5,11.6-4.6,17.3c-2.2-1.8-1.4-3.5-1.7-5
		C682.8,158.8,683.7,157.4,685.2,156.1z"/>
	<path fill="#7E2F2A" d="M685.2,156.1c-0.6,1.6-1.2,3.1-1.8,4.7c-0.9-0.5-1.7-1-2.6-1.5c-0.1-2.7-0.1-5.3-0.2-8
		C684,151.2,683.2,155,685.2,156.1z"/>
	<path fill="#D48D7E" d="M712.1,151.6c-3,3.6-6.4,4.3-9.5,5.9C705,152.9,705,152.9,712.1,151.6z"/>
	<path fill="#F7F6F0" d="M772,227.3c2.4-0.5,4.8-1,7.2-1.5c0.3,1.8,1.5,2.7,3.2,2.8c10.7,0.6,19,5.6,26.1,13.4
		c1.1,1.3,3,1.8,4.6,2.7c1.8,3.2,5.2,3.3,8.2,4.4c-4.8,4.5-8.8-1.6-13.6-1c0,2.9,3.6,2.4,4.4,4.7c-0.5,0.3-1.1,0.9-1.7,0.9
		c-11.4,1-22.1-2.2-32.9-5.3c-3.2-0.9-6.3-2.7-9.8-2.1c-3.3-2.3-2.5-3.8,0.8-4.9c7.8,0.3,15.7,2.6,24.3-0.9
		C785.7,235.2,774.5,237.8,772,227.3z"/>
	<path fill="#A56D57" d="M763.8,197.3c-7.8-0.1-15.7-0.7-23.5,0.7c10.3-6.3,20.9-8.2,32.2-2.7C769.5,195.5,766.5,195.7,763.8,197.3z
		"/>
	<path fill="#9E7C6F" d="M768.8,206.9c-10,0.8-20,1.6-31,2.5c13.6-6.5,26.9-4.8,40.1-4c0.7,0.9,1.5,1.9,2.2,2.8
		C776,209.8,772.4,208.2,768.8,206.9z"/>
	<path fill="#F1D4C7" d="M768.8,206.9c3.9-1.1,7.4,1.7,11.2,1.3c3.3,2.5,8.2,2.6,11.5,8.8c-9.8-7-19.2-7.9-28.8-7.6
		C764.7,208.6,766.8,207.8,768.8,206.9z"/>
	<path fill="#A97054" d="M761.6,495.3c1.8,1.1,2.8,2.6,2.7,4.7c-2.1,0.1-0.4,4.8-3.6,3.2c-2.7-1.3-3-3.8-1.2-6.3
		C760.2,496.4,760.9,495.8,761.6,495.3z"/>
	<path fill="#DDCACB" d="M712.2,489.2c2.5,0.7,4.9,1.4,7.3,2.1c0.2,3.7-3.5,1.3-4.4,3.3c6,2.8,11,6.8,13.3,13.4
		c-0.8,0.6-1.5,0.5-2.1-0.2c-2.8-5.2-6.9-9-13.6-11.4c0.7,2.2,1.3,3.8,1.9,5.6c-3.7-1-8-2-8.5-5.7
		C705.7,493.1,709.7,491.2,712.2,489.2z"/>
	<path fill="#907B7F" d="M706.1,519c1.3-3.6-3.5-8.8,2.7-11.2C713.7,513,707.2,515.4,706.1,519z"/>
	<path fill="#A87D7F" d="M726.4,507.8c0.7,0.1,1.4,0.1,2.1,0.2c2,2.2,1.3,5.2,2.2,7.7c0.8,2.3-0.8,2.3-2.5,1.6
		C727.6,514.1,727,511,726.4,507.8z"/>
	<path fill="#50403F" d="M686.8,545.7c1.6-2.2,3.1-4.4,4.7-6.5c10.2-1.3,20.4-2.4,28.1-10.8c1.8-1.9,5.3-2.1,8.2-1.6
		c0,2.2,0,4.3,0,6.5c-5.9,3.5-13.6,4.1-17.7,10.7c-0.3,0.5-1.3,0.9-1.8,0.8C701.1,541.6,694.1,547.3,686.8,545.7z"/>
	<path fill="#BC8E8A" d="M740.5,501.6c1,2.1,2,4.2,3.2,6.6C737.6,504.7,737.6,504.7,740.5,501.6
		C740.5,501.7,740.5,501.6,740.5,501.6z"/>
	<path fill="#F5E2D4" d="M769.1,242.8c-3,0.2-2.3,1.9-1.4,3.6c8.1,5.1,17.3,7.4,26.5,9.2c0.3,1.4-0.2,2-1.7,1.6c-2-0.1-4-0.2-6-0.3
		c-10.5-4.2-21-8.3-31.6-12.5c-3.1-2-5.5-4.9-3.2-8.3c1.9-2.8,5.3-1.7,7.9,0.1C761.4,240.5,768.1,237.4,769.1,242.8z"/>
	<path fill="#F1B191" d="M792.5,257.3c0.6-0.5,1.1-1.1,1.7-1.6c6.4,2.2,13.2,0.8,20,2.2C809.3,262.4,797.4,261.9,792.5,257.3z"/>
	<path fill="#ABA7A8" d="M680.3,560.2c4.7-0.6,9.6-0.8,14.2-1.9c3.3-0.8,5.5,1.1,8.2,1.8c-2.2,2.4-5.8,0.8-8.1,2.7
		c-3.7,0.8-7.5,0.1-11.3,1.3C680,565,679.1,563.1,680.3,560.2z"/>
	<path fill="#9F9690" d="M705.4,559.5c3.5-4.1,6.7-8.9,13.1-4.3C714.5,557.9,710,559,705.4,559.5z"/>
	<path fill="#B4A295" d="M724.5,553.4c0.5-2.4,0.4-5.2,3.7-5.7C734.1,554.2,725.3,551.2,724.5,553.4z"/>
	<path fill="#F6DECF" d="M931.5,779.9c-2.5,4.9-4.8,8.7-10.3,7.3c-2.3-0.6-2.8-2.7-1.9-4.3C922,778.2,926.4,778.7,931.5,779.9z"/>
	<path fill="#FEFEFE" d="M989.3,701.3c3.5,6.1,1.9,10.4,1.9,14.6C990.2,711.7,987.8,707.7,989.3,701.3z"/>
	<path fill="#B26F57" d="M769.1,242.8c-3.7-1.8-8.1-2.3-11.2-5.3c-0.1-0.1,0.1-0.5,0.2-0.6c0.5-0.2,1-0.3,1.4-0.5
		c1.5,0.1,3.1,0.2,4.6,0.3c3.8,2.2,8.4-1.6,10.5,0.4c-0.2-0.2-2.6-0.2-4.3-1.8c-7.2-1.6-14.3-3.3-23.2-5.3c9.1-3.6,17-2.8,24.8-2.7
		c5.7,7.3,14.7,7.6,22.3,10.8c1.5,0.6,2.9,1.5,2.7,3.4c-0.2,1.8-2,1.3-3.2,1.5C785.5,244.8,777.3,245.3,769.1,242.8z"/>
	<path fill="#F0CDB3" d="M770.3,235.3c4.3,0.7,8.6,1.2,12.2,4.5c-6.5,1.6-12.2-2.2-18.4-3.1C766.2,236.1,768.6,237.4,770.3,235.3z"
		/>
	<path fill="#8E6563" d="M718.7,192.4c4.1-2.9,7.1-7.7,12.9-7.9c-2.8,4.5-7.5,6.7-11.6,9.7C719.6,193.6,719.1,193,718.7,192.4z"/>
	<path fill="#370E22" d="M538.3,236.6c-3-0.9-8.5,2.3-7.8-4.7c3.3,0.3,6.1,1.9,8.6,3.9c0.1,0.1,0,0.5-0.1,0.6
		C538.8,236.5,538.5,236.5,538.3,236.6z"/>
	<path fill="#93808C" d="M615.8,356.5c1-1,2-2,3-3.1c2.7,0.4,4.7,1.6,4.7,5.4C620.7,358.4,617.9,358.8,615.8,356.5z"/>
	<path fill="#2D1337" d="M590.2,409.9c3.8,0.5,7.4-1.5,11.5,1.2c3.6,2.4,2.8,4,1.5,6.6c-8.2-0.7-14.2,4-21.1,7.2
		c-4.8,2.2-11.2,3.3-17,4.3c-4.7,0.8-8.9,2.5-10.7,7.5l0.2-0.2c-7.3,0.5-4.1-6.4-6.6-9.3c-0.6-0.3-0.8-0.6-0.6-1
		c0.1-0.4,0.3-0.6,0.5-0.6c-0.5-6.7-0.7-13.3,2.6-19.8c0.7,3.2,1.4,6.3,2.3,10.3c5.2-14.3,13.6-23.9,28.5-26.4
		c-14.1,8.6-20.6,22.6-27.5,37.2c3.6-0.3,3.9-3,5.7-3.9c0.7-0.3,1.3-1.2,2-1.2c7.6-0.3,14.6-2.1,18.5-6.4
		C582.7,412.4,586.2,410.9,590.2,409.9z"/>
	<path fill="#40213F" d="M627.8,408.3c2.8,0.8,4.9,2.8,6.8,4.9c-0.1,11.4-9.5,15.8-16.6,22c-0.4,0.3-1.6,0.2-2.1-0.2
		c-1-0.8-0.5-1.9,0.2-2.7c2-2.2,5-3.7,5.7-7.9c-6.6,4.6-12.6,8.7-19.9,13.8c3.2-8.6,9.1-12.5,15.1-15.5
		C623.3,419.5,627.6,415.7,627.8,408.3z"/>
	<path fill="#41303E" d="M596.8,389.6c0.5,1.1,1.1,2.1,1.6,3.2c-9.1,6.8-20.4,9.9-29.4,17.1C577,401.3,584.5,392.3,596.8,389.6z"/>
	<path fill="#2B1B35" d="M554.3,436.8c11.2-1.7,22.1,2.7,33.4,2.2c-10.9,4.2-21.9,4.3-33,0.4c-0.4-0.1-0.2-1.8-0.2-2.8
		C554.5,436.6,554.3,436.8,554.3,436.8z"/>
	<path fill="#46424B" d="M547.7,425.7c0.1,0.5,0.1,1,0.2,1.6c-6.5-3-7.8-6.7-4.8-15.8C546.2,416,542.9,422.3,547.7,425.7z"/>
	<path fill="#E5C6E4" d="M571.5,367.4c0.9,1.2,5.6-1.3,3,3.2c-4.9,1.1-9.8,2.2-15.4,3.4C562.5,369.1,567.9,370,571.5,367.4z"/>
	<path fill="#CEA4C9" d="M562,359.3c0.5,0.6,0.9,1.2,1.4,1.8c-3.9,2.2-7.8,4.5-11.7,6.7C553.9,363.2,557.7,360.9,562,359.3z"/>
	<path fill="#903F52" d="M715.3,372.1c0.1,0.7,0.1,1.3,0.2,2c-1.7,2.2,5,2.8,1.2,4.9c-4,2.3-8.5,5.4-13.2,3.3
		c-3.4-1.6,1.9-4.3,0.3-7.3c-3.7,6.4-6.9,6.8-8.6-1.4c-3.6,2.3-1.2,5.1-1.9,7.3c-11.7-5.7-12.9-25.5-1.7-33.6
		c-0.7,6-2.2,11.6-1.1,17.4c0.2,1.2,0.9,2.4,1.9,5c5.6-18.3,16.2-29.6,35.2-30.6c4.1-2.3,8.5-1.3,12.7-1.2c2.5,0.1,4.6,1,3.2,4.3
		c-3.6,0.2-7.3,0.3-10.9,0.6c-15.9,1.3-24.7,10.5-28.7,27.3c7.7-6.3,14.4-11.5,22.1-15.3c2.2-0.9,3.8-0.5,4.3,2.1
		c-1.5,4.8-6.8,5.2-9.7,8.4C718.6,367.3,715,368.2,715.3,372.1z"/>
	<path fill="#8B5660" d="M708.8,394.7c-4.1-0.8-8.1-1.6-10.5-6.7c10.2-1.6,19.4,4.5,30.8,0.2c-3.8,5-7.2,5.8-10.6,6.5
		C715.3,396.4,712.1,396.3,708.8,394.7z"/>
	<path fill="#BC727C" d="M743.6,342.1c-1.1-4.6-4.9-2.5-7.6-2.8c-2.8-0.3-5.6-0.2-8.4-0.3c1.5-4.2,5.2-2.5,8-2.9
		c5.2-0.8,10.8,1.6,15.9-3.2C752.3,340.1,749.3,342.4,743.6,342.1z"/>
	<path fill="#A37C7B" d="M729.4,357.8c0.2-2.4-1.5-2.9-3.3-3.2c7-4.2,14.6-3.7,22-2.2c4.6,0.9,8.7,1,12.9-0.9
		c-2.5,4.2-7.4,4-11.1,6.2C743,354.7,736.2,357.3,729.4,357.8z"/>
	<path fill="#F6CFC8" d="M756.3,340.6c1.4-3.5,2.7-6.9,4.2-10.7c5.1,5.8-1,10.4-0.8,15.4C757.3,344.6,758.3,341.5,756.3,340.6z"/>
	<path fill="#CDCFCA" d="M708.8,394.7c3.2,0,6.5-0.1,9.7-0.1C715.3,398.9,712.1,399.1,708.8,394.7z"/>
	<path fill="#ECBDB2" d="M717.6,310.7c7.8-5.1,14.9-6.5,22.3-9.2C735.9,306.8,731.7,308.5,717.6,310.7z"/>
	<path fill="#CF9061" d="M811.7,323.8c5.3-0.1,10.5-0.1,15.8-0.2C822.3,329.4,817,326.7,811.7,323.8z"/>
	<path fill="#EBA398" d="M762.8,315.3c-1.9,0.2-3.2,0.9-3.1,3c-2.5,0.4-6-0.5-4.9-2.7C756.2,312.2,759.9,313.2,762.8,315.3z"/>
	<path fill="#F5D3D5" d="M729.4,357.8c6.4-4.3,16-4.3,20.5-0.1c-13.8-0.7-25.3,4.1-34.6,14.3c-1-0.4-4.2,0.8-1.7-2
		C718.1,365.1,723,360.5,729.4,357.8z"/>
	<path fill="#965F5B" d="M734.2,198.8c3.9-9.4,9.9-12.8,22.9-12.4C747.4,189.2,741.3,194,734.2,198.8z"/>
</g>
</svg>
